<?xml version="1.0" encoding="utf-8"?>
<!-- Generator: Adobe Illustrator 21.0.0, SVG Export Plug-In . SVG Version: 6.00 Build 0)  -->
<svg version="1.1" id="Layer_1" xmlns="http://www.w3.org/2000/svg" xmlns:xlink="http://www.w3.org/1999/xlink" x="0px" y="0px"
	 viewBox="0 0 100 100" style="enable-background:new 0 0 100 100;" xml:space="preserve">
<style type="text/css">
	.st0{fill:#FFFFFF;}
	.st1{opacity:0.2;fill:#FFFFFF;}
	.st2{opacity:0.25;fill:#FFFFFF;}
	.st3{opacity:0.48;}
	.st4{fill:#FCFCFC;}
	.st5{opacity:0.2;}
	.st6{fill:#FFFDFD;}
	.st7{fill:none;stroke:#000000;stroke-width:0.5;stroke-miterlimit:10;}
	.st8{fill:#A6B0B0;}
</style>
<g>
	<path class="st0" d="M71.1,22.8c0.2-0.2,0.8-0.7,1.6-0.8c1.1,0,1.9,0.8,2.1,1c-1.7,0.4-2.3,0.6-3.8,0.9L71.1,22.8z"/>
	<path class="st0" d="M51.3,79.8c-0.1,0-0.1,0-0.2,0c-0.3,0-1.1,0-1.9-0.1c-0.7,0-1.4,0-1.7-0.1c-1.3-0.1-2.7-0.2-4-0.4
		c-2.6-0.3-5.2-0.8-7.7-1.5l-0.9-0.3c-0.3-0.1-0.6-0.2-0.9-0.3l-0.5-0.1c-0.1,0-0.3-0.1-0.4-0.1c-0.3-0.1-0.6-0.2-0.9-0.3
		c-1.2-0.4-2.3-0.9-3.3-1.4c-1.1-0.5-2.1-1-3-1.6c-0.5-0.3-1-0.7-1.5-1c1.5-2.2,2.9-4.5,4.4-6.7c3.8-5.5,7.6-11,11.4-16.6
		c-3.2,1.3-6.1,2.2-8.8,2.7c-2.8,0.6-5.3,0.8-7.6,0.8c-1.4,0-2.7-0.1-3.9-0.3c-0.6-0.1-1.1-0.2-1.7-0.3c-0.1,0-0.3-0.1-0.4-0.1
		c-0.7-0.2-1.4-0.3-2.1-0.6c-0.6-0.2-1.3-0.4-1.9-0.7c-0.1-0.1-0.3-0.1-0.4-0.2c-2.9-1.2-5.1-2.9-6.9-4.5c-3.5-3.3-4.9-6.7-4.9-6.7
		l9.7-4l30.2-12.3l7.6-11l2-2.9L51.3,79.8z"/>
	<path class="st0" d="M80.1,71.7c-0.1,0.1-0.1,0.1-0.2,0.2c-0.8,0.7-1.6,1.3-2.6,1.9c-0.9,0.6-1.9,1.1-3,1.6c-1.1,0.5-2.2,1-3.3,1.4
		c-1.2,0.4-2.4,0.8-3.6,1.1c-2.5,0.7-5.1,1.1-7.7,1.5c-1.6,0.2-3.3,0.3-5,0.4c-0.6,0-1.2,0-1.9,0.1c0-0.9,0-1.8,0-2.8V25.9l5.9,8.3
		l0.4,0.5l0.1,0.1l0.1,0.1c0,0,0.1,0.1,0.1,0.1l0.2,0.3c0,0,0,0.1,0.1,0.1l0,0c0,0,0,0,0,0.1l0,0v0l0.2,0.3l1.2,1.7l0.2,0.2l3.2,4.5
		c0.7-0.2,1.4-0.3,2.2-0.3c1,0,2,0.2,3,0.5l0.6-0.9l0.1-0.1l0.7-1l1-1.5l0.7-1l2.4-3.6l0.7,5.3l0.2,1.5l0.5,3.5l0.2,1.6v0l0.1,0.4
		l0.7,5.2l0.5,3.5l1,8C79.1,64.5,79.9,71,80.1,71.7z"/>
	<path class="st0" d="M61.6,48.2c-2.6,0-2.6,4,0,4C64.2,52.2,64.2,48.2,61.6,48.2z"/>
	<path d="M61.6,49.1c-1.4,0-1.4,2.2,0,2.2C63,51.3,63,49.1,61.6,49.1z"/>
	<path class="st0" d="M70.4,47.5c-2.6,0-2.6,4,0,4C73,51.6,73,47.5,70.4,47.5z"/>
	<path d="M70.4,48.5c-1.4,0-1.4,2.2,0,2.2C71.8,50.6,71.8,48.5,70.4,48.5z"/>
	<ellipse transform="matrix(0.1804 -0.9836 0.9836 0.1804 -11.6493 121.8832)" class="st1" cx="67.3" cy="67.9" rx="3.1" ry="3.1"/>
	<ellipse transform="matrix(0.1804 -0.9836 0.9836 0.1804 -3.6536 124.8884)" class="st1" cx="73.1" cy="64.6" rx="1.9" ry="1.9"/>
	<path class="st2" d="M79.4,66.5L79.4,66.5c-0.1,0.1,0.3,2.4,0.3,2.4L77.1,55l-0.5-3.4l-1-6l-0.1-0.4l-0.3-1.6l-0.5-3.1L74.6,39
		l-0.1-0.5l-0.2,0.3l-0.7,1l-1.1,1.7l-0.6,1l-0.1,0.1l-1.4,2.1c-1.7-1.9-6.8-0.8-6.8-0.8l-4.5-6.9h0L59,37l-1-1.6l0,0L57,34
		l-4.2-6.4v-1.7l5.9,8.3l0.4,0.5l0.1,0.1l0.2,0.3l0.2,0.3l0.1,0.1l0,0l0,0.1l0,0v0l0.2,0.3l1.2,1.7l0.2,0.2l3.2,4.5
		c0.7-0.2,1.4-0.3,2.2-0.3c1,0,2,0.2,3,0.5l0.6-0.9l0.1-0.1l0.7-1l1-1.5l0.7-1l2.4-3.6l0.7,5.3l0.2,1.5l0.5,3.5l0.2,1.6v0l0.1,0.4
		l0.7,5.2l0.5,3.5l1,8L79.4,66.5z"/>
	<path class="st3" d="M27.3,50c0,0,0.1-0.1,0.3-0.2c0.2-0.1,0.4-0.3,0.7-0.5c0.1-0.1,0.3-0.2,0.4-0.3c0.2-0.1,0.3-0.3,0.5-0.4
		c0.1-0.1,0.2-0.1,0.2-0.2c0.1-0.1,0.2-0.2,0.2-0.2c0.2-0.2,0.3-0.3,0.5-0.5c0.2-0.2,0.3-0.3,0.4-0.5c0.1-0.2,0.3-0.3,0.4-0.5
		c0.1-0.2,0.2-0.3,0.4-0.5c0.1-0.2,0.2-0.3,0.3-0.5c0-0.1,0.1-0.1,0.1-0.2c0-0.1,0.1-0.1,0.1-0.2c0.1-0.1,0.1-0.2,0.2-0.3
		c0.1-0.2,0.2-0.3,0.2-0.3s0,0.1-0.1,0.3c0,0.1,0,0.2-0.1,0.4c0,0.1-0.1,0.3-0.2,0.5c-0.1,0.2-0.1,0.4-0.2,0.5
		c-0.1,0.2-0.2,0.4-0.3,0.6c-0.1,0.2-0.2,0.4-0.4,0.6c-0.2,0.2-0.3,0.4-0.5,0.6c-0.2,0.2-0.3,0.4-0.5,0.5c-0.2,0.2-0.4,0.3-0.6,0.4
		c-0.2,0.1-0.4,0.2-0.6,0.3c-0.2,0.1-0.4,0.2-0.5,0.3c-0.2,0.1-0.3,0.1-0.5,0.2c-0.1,0-0.3,0.1-0.4,0.1C27.4,50,27.3,50,27.3,50z"/>
	<circle class="st4" cx="61.6" cy="49.4" r="0.5"/>
	<circle class="st4" cx="70.4" cy="48.6" r="0.5"/>
	<g>
		<g>
			<g>
				<path d="M66.7,57.6c0.3,0.4,1,0.3,1.2-0.2l0.4-1l0.4-1c0.2-0.5-0.2-1-0.8-0.9l-1.1,0.2l-1.1,0.2c-0.5,0.1-0.8,0.7-0.4,1.1
					l0.7,0.9L66.7,57.6z"/>
				<g>
					<path d="M67.7,57.8C67.7,57.8,67.7,57.8,67.7,57.8c0,0.2,0,0.2,0,0.4c0,0.1,0,0.1,0,0.2c0,0.1,0,0.2,0,0.2
						c0,0.2-0.1,0.4-0.2,0.6c-0.1,0.2-0.2,0.4-0.3,0.6c-0.1,0.2-0.3,0.4-0.5,0.6c-0.2,0.2-0.4,0.3-0.7,0.4c-0.3,0.1-0.5,0.2-0.8,0.2
						c-0.3,0-0.6,0-0.8,0c-0.3-0.1-0.5-0.1-0.7-0.2c-0.2-0.1-0.4-0.2-0.6-0.4c-0.2-0.1-0.3-0.3-0.4-0.5c-0.1-0.2-0.2-0.3-0.3-0.5
						c0-0.1-0.1-0.1-0.1-0.2c0-0.1,0-0.1-0.1-0.2c0-0.1,0-0.2-0.1-0.3c0-0.1,0-0.1,0-0.1s0,0,0,0.1c0,0.1,0,0.1,0.1,0.3
						c0,0.1,0,0.1,0.1,0.2c0,0.1,0.1,0.1,0.1,0.2c0.1,0.1,0.2,0.3,0.3,0.4c0.1,0.1,0.3,0.3,0.4,0.4c0.2,0.1,0.4,0.2,0.6,0.3
						c0.2,0.1,0.5,0.1,0.7,0.2c0.2,0,0.5,0,0.7,0c0.2-0.1,0.5-0.1,0.7-0.2c0.2-0.1,0.4-0.3,0.6-0.4c0.2-0.2,0.3-0.3,0.4-0.5
						c0.1-0.2,0.2-0.4,0.2-0.5c0-0.2,0.1-0.3,0.1-0.5c0-0.1,0-0.1,0-0.2c0-0.1,0-0.1,0-0.2c0-0.1,0-0.2,0-0.2c0-0.1,0-0.1,0-0.1
						L67.7,57.8z"/>
					<path d="M67.7,57.8C67.7,57.8,67.7,57.8,67.7,57.8c0,0.1,0,0.3,0.1,0.3c0,0,0,0.1,0,0.2c0,0.1,0,0.1,0.1,0.2
						c0.1,0.1,0.1,0.3,0.2,0.4c0.1,0.1,0.2,0.3,0.4,0.4c0.1,0.1,0.3,0.3,0.5,0.4c0.2,0.1,0.4,0.2,0.7,0.2c0.2,0,0.5,0,0.7,0
						c0.3,0,0.5-0.1,0.7-0.2c0.2-0.1,0.4-0.2,0.6-0.4c0.2-0.2,0.3-0.3,0.5-0.5c0.1-0.2,0.2-0.4,0.3-0.5c0.1-0.2,0.1-0.4,0.1-0.5
						c0-0.1,0-0.2,0-0.2c0-0.1,0-0.1,0-0.2c0-0.1,0-0.2,0-0.3c0-0.1,0-0.1,0-0.1s0,0,0,0.1c0,0.1,0,0.1,0,0.3c0,0.1,0,0.1,0,0.2
						c0,0.1,0,0.1,0,0.2c0,0.2,0,0.3-0.1,0.5c-0.1,0.2-0.1,0.4-0.3,0.6c-0.1,0.2-0.3,0.4-0.4,0.6c-0.2,0.2-0.4,0.3-0.6,0.5
						c-0.2,0.1-0.5,0.2-0.8,0.3c-0.3,0-0.6,0.1-0.8,0c-0.3,0-0.5-0.1-0.8-0.2c-0.2-0.1-0.5-0.2-0.7-0.4c-0.2-0.1-0.4-0.3-0.5-0.5
						c-0.1-0.2-0.2-0.3-0.3-0.5c0-0.1-0.1-0.2-0.1-0.2c0-0.1-0.1-0.1-0.1-0.2c-0.1-0.1-0.1-0.2-0.1-0.3c0-0.1,0-0.1,0-0.1L67.7,57.8
						z"/>
				</g>
			</g>
		</g>
		<path d="M58.4,47.8c0,0,0-0.1,0.1-0.2c0-0.1,0.1-0.1,0.1-0.2c0.1-0.1,0.1-0.2,0.2-0.3c0.1-0.1,0.2-0.2,0.3-0.3
			c0.1-0.1,0.2-0.2,0.3-0.2c0.1-0.1,0.3-0.2,0.4-0.2c0.1-0.1,0.3-0.1,0.5-0.1c0.2,0,0.3-0.1,0.5-0.1c0.2,0,0.3,0,0.5,0
			c0.1,0,0.3,0,0.4,0.1c0.1,0,0.2,0.1,0.4,0.1c0.1,0,0.2,0.1,0.3,0.1c0.1,0,0.1,0.1,0.2,0.1c0.1,0.1,0.2,0.1,0.2,0.1s-0.1,0-0.2,0
			c-0.1,0-0.1,0-0.2,0c-0.1,0-0.2,0-0.3,0c-0.1,0-0.2,0-0.3,0c-0.1,0-0.2,0-0.4,0c-0.1,0-0.3,0-0.4,0c-0.1,0-0.3,0-0.4,0.1
			c-0.1,0-0.3,0.1-0.4,0.1c-0.1,0-0.2,0.1-0.4,0.1c-0.2,0.1-0.5,0.2-0.6,0.3c-0.2,0.1-0.3,0.2-0.5,0.3
			C58.5,47.7,58.4,47.8,58.4,47.8z"/>
		<path d="M72.5,47.4c0,0,0-0.1-0.1-0.2c0-0.1-0.1-0.1-0.1-0.2c-0.1-0.1-0.1-0.2-0.2-0.3c-0.1-0.1-0.2-0.2-0.3-0.3
			c-0.1-0.1-0.2-0.2-0.3-0.2c-0.1-0.1-0.3-0.2-0.4-0.2c-0.1-0.1-0.3-0.1-0.5-0.1c-0.2,0-0.3-0.1-0.5-0.1c-0.2,0-0.3,0-0.5,0
			c-0.1,0-0.3,0-0.4,0.1c-0.1,0-0.2,0.1-0.4,0.1c-0.1,0-0.2,0.1-0.3,0.1c-0.1,0-0.1,0.1-0.2,0.1c-0.1,0.1-0.2,0.1-0.2,0.1
			s0.1,0,0.2,0c0.1,0,0.1,0,0.2,0c0.1,0,0.2,0,0.3,0c0.1,0,0.2,0,0.3,0c0.1,0,0.2,0,0.4,0c0.1,0,0.3,0,0.4,0c0.1,0,0.3,0,0.4,0.1
			c0.1,0,0.3,0.1,0.4,0.1c0.1,0,0.2,0.1,0.4,0.1c0.2,0.1,0.5,0.2,0.6,0.3c0.2,0.1,0.3,0.2,0.5,0.3C72.5,47.3,72.5,47.4,72.5,47.4z"
			/>
		<g>
			<path d="M64.1,56c-0.1,0-0.1,0.2,0,0.2C64.2,56.3,64.2,56,64.1,56z"/>
			<path d="M63.2,57c-0.1,0-0.1,0.2,0,0.2C63.4,57.2,63.4,57,63.2,57z"/>
			<path d="M64.3,57.6c-0.1,0-0.1,0.2,0,0.2C64.5,57.8,64.5,57.6,64.3,57.6z"/>
			<path d="M64.7,56.8c-0.1,0-0.1,0.2,0,0.2C64.9,57,64.9,56.8,64.7,56.8z"/>
		</g>
		<g>
			<path d="M70.3,55c-0.1,0-0.1,0.2,0,0.2C70.4,55.2,70.4,55,70.3,55z"/>
			<path d="M69.5,56c-0.1,0-0.1,0.2,0,0.2C69.6,56.2,69.6,56,69.5,56z"/>
			<path d="M70.5,56.6c-0.1,0-0.1,0.2,0,0.2C70.7,56.8,70.7,56.6,70.5,56.6z"/>
			<path d="M71,55.7c-0.1,0-0.1,0.2,0,0.2C71.1,56,71.1,55.7,71,55.7z"/>
		</g>
	</g>
	
		<ellipse transform="matrix(2.190691e-02 -0.9998 0.9998 2.190691e-02 2.706 140.247)" class="st1" cx="73" cy="68.7" rx="1.1" ry="1.1"/>
	<path class="st2" d="M80.1,71.7c-0.1,0.1-0.1,0.1-0.2,0.2c-0.8,0.7-1.6,1.3-2.6,1.9c-0.9,0.6-1.9,1.1-3,1.6c-1.1,0.5-2.2,1-3.3,1.4
		c-1.2,0.4-2.4,0.8-3.6,1.1c-2.5,0.7-5.1,1.1-7.7,1.5c-1.6,0.2-3.3,0.3-5,0.4c-0.6,0-1.2,0-1.9,0.1c0-0.9,0-1.8,0-2.8V27.8l1.5,2.1
		v45.7c0,0.9,0,1.8,0,2.8c0.6,0,1.2,0,1.9-0.1c1.7-0.1,3.3-0.2,5-0.4c2.6-0.3,5.2-0.8,7.7-1.5c1.2-0.3,2.4-0.7,3.6-1.1
		c1.2-0.4,2.3-0.9,3.3-1.4c1.1-0.5,2.1-1,3-1.6c0.4-0.3,0.8-0.5,1.2-0.8C80,71.5,80,71.6,80.1,71.7z"/>
	<path class="st0" d="M73.1,22.6c-0.4-1.6-2-2.6-3.6-2.2c-1.6,0.4-2.6,2-2.2,3.6c0.1,0.2,0.1,0.5,0.3,0.7l-7.8,8.3c0,0,0,0,0,0
		c2.6,2.4,6.6,2.3,9-0.3c1.7-1.8,2.1-4.3,1.4-6.5c0.2,0,0.5,0,0.7-0.1C72.5,25.8,73.5,24.2,73.1,22.6z"/>
	<path class="st0" d="M68.7,25.5C68.7,25.5,68.7,25.5,68.7,25.5l-5.5-5.2c0,0,0,0,0,0c-1.4,1.5-1.4,3.9,0.2,5.4
		C64.8,27.1,67.3,27.1,68.7,25.5z"/>
	<path class="st5" d="M68.7,25.5L68.7,25.5c-0.1,0.1-0.3,0.3-0.4,0.4l-5.5-5.1c0,0,0,0,0,0c-0.1,0.1-0.1,0.1-0.1,0.2
		c0.1-0.2,0.3-0.4,0.5-0.6c0,0,0,0,0,0L68.7,25.5z"/>
	<path class="st0" d="M54.7,20.4c-0.1-0.1-0.5-0.5-1.1-0.5c-0.7,0-1.3,0.5-1.4,0.7c1.1,0.3,1.5,0.4,2.5,0.6L54.7,20.4z"/>
	<path class="st6" d="M53.4,20.3c0.2-1.1,1.3-1.7,2.4-1.5c1.1,0.2,1.7,1.3,1.5,2.4c0,0.2-0.1,0.3-0.2,0.5l5.2,5.5c0,0,0,0,0,0
		c-1.7,1.6-4.4,1.5-6-0.2c-1.1-1.2-1.4-2.9-0.9-4.3c-0.2,0-0.3,0-0.5,0C53.8,22.4,53.1,21.3,53.4,20.3z"/>
	<path class="st0" d="M56.3,22.2C56.3,22.2,56.3,22.2,56.3,22.2l3.7-3.5c0,0,0,0,0,0c1,1,0.9,2.6-0.1,3.6
		C58.9,23.3,57.3,23.2,56.3,22.2z"/>
	<g class="st5">
		<path d="M55.3,22.7c-0.4,1.3-0.3,2.7,0.6,3.9c-0.6-1.2-0.6-2.6,0-3.7c-0.2,0-0.3,0-0.5-0.1C55.4,22.8,55.4,22.8,55.3,22.7z"/>
		<path d="M54,22.2c-0.2-0.4-0.3-0.9-0.2-1.3c0.1-0.6,0.5-1,0.9-1.3c-0.1,0.2-0.1,0.6,0.3,0.6c0.5,0.1,0.8-0.7,0.2-0.9
			c0.3-0.1,0.6-0.1,0.9,0c0.3,0.1,0.6,0.2,0.9,0.4c-0.3-0.5-0.7-0.9-1.3-1c-1.1-0.2-2.1,0.4-2.4,1.5C53.2,21,53.5,21.7,54,22.2z"/>
	</g>
	<path class="st5" d="M56.3,22.2L56.3,22.2c0.1,0.1,0.2,0.2,0.3,0.2l3.6-3.4c0,0,0,0,0,0c0,0,0.1,0.1,0.1,0.1
		c-0.1-0.1-0.2-0.3-0.3-0.4c0,0,0,0,0,0L56.3,22.2z"/>
	<path d="M55.2,19.4c0.6,0.1,0.4,1-0.2,0.9C54.5,20.1,54.7,19.2,55.2,19.4z"/>
	<path d="M70.3,21.3c-0.8,0.2-0.5,1.5,0.3,1.3C71.4,22.4,71.1,21.1,70.3,21.3z"/>
	<g>
		<g>
			<path d="M32,43.4c0,0.1-0.2,0.3-0.4,0.8c-0.2,0.2-0.3,0.5-0.6,0.9c-0.2,0.3-0.5,0.7-0.8,1.1c-0.3,0.4-0.7,0.8-1.1,1.2
				c-0.4,0.4-0.9,0.8-1.3,1.2c-0.5,0.4-1,0.8-1.6,1.2c-0.1,0.1-0.3,0.2-0.4,0.3c-0.1,0.1-0.3,0.2-0.4,0.3c-0.3,0.2-0.6,0.3-0.9,0.5
				c-0.3,0.2-0.6,0.3-0.9,0.5c-0.3,0.1-0.6,0.3-0.9,0.4c-0.6,0.3-1.2,0.5-1.8,0.7c-0.3,0.1-0.7,0.2-1,0.3c-1.5-0.2-2.9-0.5-4.1-0.9
				c0.4,0,0.9-0.1,1.4-0.2c0.5-0.1,1-0.2,1.5-0.3c0.5-0.1,1.1-0.2,1.7-0.4c0.6-0.1,1.2-0.3,1.8-0.5c0.3-0.1,0.6-0.2,0.9-0.3
				c0.3-0.1,0.6-0.2,0.9-0.4c0.3-0.1,0.6-0.3,0.9-0.4c0.1-0.1,0.3-0.1,0.4-0.2c0.1-0.1,0.3-0.1,0.4-0.2c0.6-0.3,1.1-0.6,1.6-1
				c0.5-0.3,1-0.7,1.4-1c0.4-0.4,0.8-0.7,1.2-1.1c0.4-0.3,0.6-0.7,0.9-1c0.2-0.3,0.5-0.6,0.6-0.8C31.8,43.7,31.9,43.5,32,43.4z"/>
			<path d="M39.3,38.6c0.8-2.1-0.3-4.9-3.2-4.9c-1.1,0-1.9,0.4-2.5,1c0.4-1.2,1.5-2.2,3.2-2.2C40.3,32.5,41.1,36.6,39.3,38.6z"/>
			<path d="M37.7,30.9c0,0,0.1,0,0.2-0.1c0.1,0,0.1,0,0.2-0.1c0.1,0,0.2,0,0.3,0c0.1,0,0.2,0,0.4,0c0.1,0,0.3,0,0.4,0.1
				c0.1,0,0.3,0.1,0.4,0.2c0.1,0.1,0.3,0.1,0.4,0.2c0.1,0.1,0.3,0.2,0.4,0.3c0.1,0.1,0.2,0.2,0.3,0.3c0.1,0.1,0.2,0.2,0.2,0.4
				c0.1,0.1,0.1,0.2,0.2,0.3c0,0.1,0.1,0.2,0.1,0.3c0,0.1,0,0.2,0,0.2c0,0.1,0,0.2,0,0.2s-0.1-0.1-0.1-0.2c0,0-0.1-0.1-0.1-0.2
				c-0.1-0.1-0.1-0.1-0.2-0.2c-0.1-0.1-0.1-0.2-0.2-0.3c-0.1-0.1-0.2-0.2-0.3-0.3c-0.1-0.1-0.2-0.2-0.3-0.3
				c-0.1-0.1-0.2-0.2-0.3-0.2c-0.1-0.1-0.2-0.1-0.3-0.2c-0.1-0.1-0.2-0.1-0.3-0.2c-0.2-0.1-0.5-0.2-0.7-0.3C38.2,31,38,31,37.9,30.9
				C37.8,30.9,37.7,30.9,37.7,30.9z"/>
			<path class="st7" d="M10.9,37.9c0.6,3.5-1.6,6.5-4.2,8.7c-2.7-1.6-5-6.8-5-6.8l8.9-3.6C10.7,36.7,10.9,37.6,10.9,37.9z"/>
		</g>
	</g>
	<circle class="st1" cx="40.3" cy="66" r="1.9"/>
	<ellipse transform="matrix(0.9873 -0.1589 0.1589 0.9873 -9.8522 7.8739)" class="st1" cx="44.3" cy="65.6" rx="1.1" ry="1.1"/>
	<circle class="st1" cx="44.6" cy="71.3" r="3.1"/>
	<path class="st1" d="M51.3,79.8c-0.1,0-0.1,0-0.2,0c-0.3,0-1.1,0-1.9-0.1V12.5l2-2.9L51.3,79.8z"/>
	<path class="st0" d="M53.2,77.1c-14.3,0-24.1-3.5-27.1-6.9l-2.3,3.7c1.6,1.4,3.9,2.8,7.3,4c5.9,2.2,13.8,3.4,22.1,3.4
		s16.2-1.2,22.1-3.4c2.2-0.8,3.9-1.7,5.3-2.6l-0.7-4.7C76.4,73.9,66.9,77.1,53.2,77.1z"/>
	<g>
		<g>
			<path d="M53.2,80.8c-8.3,0-16.1-1.2-22-3.4c-2.8-1-5.1-2.3-6.7-3.6l0.1-0.2c1.6,1.3,3.9,2.5,6.7,3.6c5.9,2.2,13.7,3.3,21.9,3.3
				c8.3,0,16-1.2,21.9-3.3c1.8-0.7,3.4-1.4,4.8-2.2l0-0.1l0.2,0l0,0.2l-0.1,0c-1.4,0.8-3,1.6-4.9,2.3C69.2,79.6,61.4,80.8,53.2,80.8
				z"/>
		</g>
	</g>
	<g>
		<g>
			<path d="M53.2,77.8c-13.5,0-23.3-3.2-27-6.4l0,0l-0.2-0.1l0.2-0.3l0.1,0.1c3.6,3.2,13.4,6.5,27,6.5c13.3,0,22.2-3,26.1-5.8
				l0.1,0.2C75.4,74.8,66.5,77.8,53.2,77.8z"/>
		</g>
	</g>
	<g>
		<circle class="st0" cx="53" cy="83.2" r="3.3"/>
		<path d="M53,86.9c-2,0-3.7-1.7-3.7-3.7c0-2,1.6-3.7,3.7-3.7c2,0,3.7,1.6,3.7,3.7C56.7,85.2,55,86.9,53,86.9z M53,80.3
			c-1.6,0-2.8,1.3-2.8,2.8c0,1.6,1.3,2.8,2.8,2.8c1.6,0,2.8-1.3,2.8-2.8C55.8,81.6,54.6,80.3,53,80.3z"/>
	</g>
	<path class="st5" d="M55.5,83.2c0,0.9-0.5,1.6-1.1,2.1c0.4-0.4,0.7-1,0.7-1.7c0-1.4-1.1-2.5-2.5-2.5c-0.5,0-1,0.1-1.4,0.4
		c0.5-0.5,1.1-0.8,1.8-0.8C54.4,80.7,55.5,81.8,55.5,83.2z"/>
	<g>
		<path class="st8" d="M52.9,84.3l-0.2,0c-0.1-0.6-0.2-1.1-0.3-1.6c-0.1,0.1-0.1,0.3-0.2,0.6c-0.1,0.2-0.1,0.4-0.1,0.5c0,0,0,0,0,0
			c0,0,0,0,0,0c0,0-0.1,0-0.1,0c-0.1,0-0.1,0-0.1,0c0-0.1,0-0.2-0.1-0.5c-0.1-0.3-0.1-0.5-0.2-0.6c0,0.3-0.2,0.8-0.4,1.6l-0.2,0
			c0-0.2,0.1-0.5,0.2-0.9c0.1-0.4,0.2-0.7,0.2-1c0,0,0.1,0,0.1,0c0,0,0.1,0,0.2,0c0,0,0.1,0.1,0.1,0.2c0,0.2,0.1,0.3,0.1,0.5
			c0,0.2,0.1,0.3,0.1,0.3c0-0.1,0.1-0.3,0.2-0.6c0.1-0.3,0.1-0.4,0.1-0.5c0,0,0.1,0,0.3,0c0,0.2,0.1,0.4,0.1,0.6
			c0,0.2,0.1,0.4,0.1,0.7C52.8,84,52.9,84.2,52.9,84.3z"/>
		<path class="st8" d="M54.8,84.3l-0.2,0c-0.1-0.6-0.2-1.1-0.3-1.6c-0.1,0.1-0.1,0.3-0.2,0.6c-0.1,0.2-0.1,0.4-0.1,0.5c0,0,0,0,0,0
			c0,0,0,0,0,0c0,0-0.1,0-0.1,0c-0.1,0-0.1,0-0.1,0c0-0.1,0-0.2-0.1-0.5c-0.1-0.3-0.1-0.5-0.2-0.6c0,0.3-0.2,0.8-0.4,1.6l-0.2,0
			c0-0.2,0.1-0.5,0.2-0.9c0.1-0.4,0.2-0.7,0.2-1c0,0,0.1,0,0.1,0c0,0,0.1,0,0.2,0c0,0,0.1,0.1,0.1,0.2c0,0.2,0.1,0.3,0.1,0.5
			c0,0.2,0.1,0.3,0.1,0.3c0-0.1,0.1-0.3,0.2-0.6c0.1-0.3,0.1-0.4,0.1-0.5c0,0,0.1,0,0.3,0c0,0.2,0.1,0.4,0.1,0.6
			c0,0.2,0.1,0.4,0.1,0.7C54.8,84,54.8,84.2,54.8,84.3z"/>
	</g>
</g>
</svg>
