<?xml version="1.0" encoding="utf-8"?>
<!-- Generator: Adobe Illustrator 21.0.0, SVG Export Plug-In . SVG Version: 6.00 Build 0)  -->
<svg version="1.1" xmlns="http://www.w3.org/2000/svg" xmlns:xlink="http://www.w3.org/1999/xlink" x="0px" y="0px"
	 viewBox="0 0 300 200" style="enable-background:new 0 0 300 200;" xml:space="preserve">
<style type="text/css">
	.st0{fill:#FFFFFF;}
	.st1{opacity:0.2;fill:#FFFFFF;}
	.st2{opacity:0.25;fill:#FFFFFF;}
	.st3{opacity:0.48;}
	.st4{fill:#FCFCFC;}
	.st5{fill:#E1E1E1;}
	.st6{opacity:0.2;}
	.st7{fill:none;stroke:#000000;stroke-miterlimit:10;}
	.st8{fill:#A6B0B0;}
	.st9{opacity:0.5;fill:#FFFFFF;}
	.st10{opacity:0.5;}
	.st11{fill:#BADEE5;}
	.st12{fill:none;}
</style>
<g id="Layer_5">
</g>
<g id="branco">
</g>
<g id="sombra">
</g>
<g id="design">
</g>
<g id="borda">
	<g>
		<g>
			<path class="st0" d="M181.6,38.9c0.4-0.4,1.5-1.5,3.1-1.5c2.1,0,3.8,1.6,4.2,2c-3.2,0.8-4.5,1.1-7.4,1.7L181.6,38.9z"/>
			<path class="st0" d="M142.9,150.5c-0.1,0-0.2,0-0.3,0c-0.7,0-2.2-0.1-3.7-0.1c-1.4,0-2.8-0.1-3.4-0.1c-2.6-0.1-5.3-0.4-7.8-0.7
				c-5.2-0.7-10.3-1.6-15.1-2.9l-1.8-0.5c-0.6-0.2-1.2-0.4-1.8-0.5l-0.9-0.3c-0.3-0.1-0.6-0.2-0.9-0.3c-0.6-0.2-1.2-0.4-1.7-0.6
				c-2.3-0.8-4.5-1.7-6.5-2.7c-2.1-1-4-2-5.9-3.2c-1-0.7-2-1.3-2.9-2c3-4.3,5.7-8.8,8.6-13.1c7.4-10.8,14.8-21.6,22.3-32.4
				c-6.2,2.5-11.9,4.2-17.2,5.3c-5.4,1.1-10.4,1.6-14.9,1.6c-2.7,0-5.2-0.2-7.6-0.5c-1.1-0.2-2.2-0.3-3.2-0.6
				c-0.2,0-0.5-0.1-0.7-0.2c-1.4-0.3-2.8-0.7-4.1-1.1c-1.3-0.4-2.5-0.8-3.7-1.3c-0.3-0.1-0.5-0.2-0.8-0.3c-5.6-2.4-10-5.7-13.5-8.9
				c-6.8-6.5-9.5-13-9.5-13l19-7.7l59.1-24l14.9-21.6l3.9-5.6L142.9,150.5z"/>
			<path class="st0" d="M199.1,134.6c-0.1,0.1-0.3,0.3-0.4,0.4c-1.5,1.3-3.2,2.5-5,3.7c-1.8,1.2-3.8,2.2-5.9,3.2
				c-2.1,1-4.3,1.9-6.5,2.7c-2.3,0.8-4.6,1.6-7,2.2c-4.8,1.3-9.9,2.2-15.1,2.9c-3.2,0.4-6.4,0.7-9.7,0.8c-1.2,0.1-2.4,0.1-3.6,0.1
				c0-1.8,0.1-3.6,0.1-5.4V45l11.5,16.2l0.7,1l0.2,0.3l0.2,0.3c0.1,0.1,0.1,0.2,0.2,0.3l0.4,0.6c0,0.1,0.1,0.1,0.1,0.2l0.1,0.1
				c0,0,0.1,0.1,0.1,0.1l0,0.1v0l0.4,0.6l2.3,3.3l0.3,0.4l6.3,8.9c1.4-0.4,2.8-0.6,4.3-0.6c2,0,4,0.4,5.8,1.1L180,76l0.2-0.3
				l1.3-1.9l2-3l1.4-2l4.7-7l1.4,10.3l0.4,2.9l0.9,6.8l0.4,3.2v0l0.1,0.8l1.3,10.2l0.9,6.9l2,15.6
				C197.3,120.5,198.7,133.3,199.1,134.6z"/>
			<path class="st0" d="M163,88.6c-5.1,0-5.1,7.9,0,7.9C168.1,96.5,168.1,88.6,163,88.6z"/>
			<path d="M163,90.4c-2.7,0-2.7,4.2,0,4.2C165.7,94.7,165.7,90.4,163,90.4z"/>
			<path class="st0" d="M180.2,87.3c-5.1,0-5.1,7.9,0,7.9C185.3,95.2,185.3,87.3,180.2,87.3z"/>
			<path d="M180.2,89.2c-2.7,0-2.7,4.2,0,4.2C182.9,93.4,183,89.2,180.2,89.2z"/>
			
				<ellipse transform="matrix(0.1804 -0.9836 0.9836 0.1804 17.5701 275.58)" class="st1" cx="174.2" cy="127.2" rx="6.2" ry="6.2"/>
			
				<ellipse transform="matrix(0.1804 -0.9836 0.9836 0.1804 33.2256 281.4641)" class="st1" cx="185.5" cy="120.8" rx="3.6" ry="3.6"/>
			<path class="st2" d="M197.8,124.4L197.8,124.4c-0.1,0.2,0.5,4.6,0.5,4.7l-4.9-27.1l-1.1-6.6l-1.9-11.7l-0.1-0.7l-0.5-3.2l-1-6.2
				l-0.5-2.9l-0.2-1l-0.4,0.6l-1.3,2l-2.2,3.3l-1.2,1.9l-0.2,0.3l-2.7,4.2c-3.4-3.7-13.4-1.5-13.4-1.5l-8.7-13.4h0l-0.3-0.4l-2-3.1
				l0,0l-1.7-2.7l-8.2-12.6V45l11.5,16.2l0.7,1l0.2,0.3l0.4,0.5l0.4,0.6l0.1,0.2l0.1,0.1l0.1,0.1l0,0.1v0l0.4,0.6l2.3,3.3l0.3,0.4
				l6.3,8.9c1.4-0.4,2.8-0.6,4.3-0.6c2,0,4,0.4,5.8,1.1L180,76l0.2-0.3l1.3-1.9l2-3l1.4-2l4.7-7l1.4,10.3l0.4,2.9l0.9,6.8l0.4,3.2v0
				l0.1,0.8l1.3,10.2l0.9,6.9l2,15.6L197.8,124.4z"/>
			<path class="st3" d="M95.9,92.2c0,0,0.2-0.1,0.5-0.3c0.3-0.2,0.8-0.5,1.4-0.9c0.3-0.2,0.6-0.4,0.9-0.7c0.3-0.3,0.6-0.5,0.9-0.8
				c0.2-0.1,0.3-0.3,0.5-0.4c0.2-0.1,0.3-0.3,0.5-0.4c0.3-0.3,0.6-0.6,0.9-0.9c0.3-0.3,0.6-0.7,0.9-1c0.3-0.3,0.5-0.7,0.8-1
				c0.3-0.3,0.5-0.7,0.7-1c0.2-0.3,0.4-0.6,0.6-0.9c0.1-0.1,0.2-0.3,0.3-0.4c0.1-0.1,0.2-0.3,0.2-0.4c0.1-0.2,0.3-0.5,0.4-0.6
				c0.2-0.3,0.3-0.5,0.3-0.5s0,0.2-0.1,0.6c0,0.2-0.1,0.4-0.2,0.7c-0.1,0.3-0.2,0.6-0.3,0.9c-0.1,0.3-0.2,0.7-0.4,1.1
				c-0.2,0.4-0.4,0.8-0.6,1.1c-0.2,0.4-0.5,0.8-0.8,1.1c-0.3,0.4-0.6,0.8-0.9,1.1c-0.3,0.3-0.7,0.7-1,1c-0.3,0.3-0.7,0.6-1.1,0.8
				c-0.4,0.3-0.7,0.5-1.1,0.7c-0.4,0.2-0.7,0.4-1,0.5c-0.3,0.1-0.6,0.3-0.9,0.3c-0.3,0.1-0.5,0.2-0.7,0.2
				C96.1,92.1,95.9,92.2,95.9,92.2z"/>
			<circle class="st4" cx="162.9" cy="90.9" r="1"/>
			<circle class="st4" cx="180.2" cy="89.4" r="1"/>
			<g>
				<g>
					<g>
						<path d="M173,107.1c0.7,0.8,2,0.6,2.4-0.4l0.8-2l0.8-2c0.4-1-0.5-2-1.5-1.9l-2.2,0.4l-2.2,0.4c-1,0.2-1.5,1.4-0.8,2.2l1.4,1.7
							L173,107.1z"/>
						<g>
							<path d="M174.9,107.4c0,0,0,0.1,0,0.2c0,0.1,0,0.3,0,0.5c0,0.1,0,0.3,0,0.4c0,0.1,0,0.3-0.1,0.5c-0.1,0.3-0.2,0.7-0.3,1.1
								c-0.2,0.4-0.4,0.8-0.6,1.2c-0.3,0.4-0.6,0.8-1,1.1c-0.4,0.3-0.9,0.6-1.3,0.8c-0.5,0.2-1,0.4-1.6,0.4c-0.5,0.1-1.1,0.1-1.6,0
								c-0.5-0.1-1-0.2-1.5-0.5c-0.4-0.2-0.9-0.5-1.2-0.8c-0.3-0.3-0.6-0.6-0.9-0.9c-0.2-0.3-0.4-0.6-0.5-0.9
								c-0.1-0.1-0.1-0.3-0.2-0.4c0-0.1-0.1-0.3-0.1-0.4c-0.1-0.2-0.1-0.4-0.1-0.5c0-0.1,0-0.2,0-0.2s0,0.1,0,0.2
								c0,0.1,0.1,0.3,0.1,0.5c0,0.1,0.1,0.2,0.1,0.3c0.1,0.1,0.1,0.3,0.2,0.4c0.1,0.3,0.3,0.6,0.6,0.9c0.2,0.3,0.5,0.6,0.9,0.8
								c0.3,0.3,0.7,0.5,1.2,0.7c0.4,0.2,0.9,0.3,1.4,0.3c0.5,0,0.9,0,1.4-0.1c0.5-0.1,0.9-0.3,1.3-0.5c0.4-0.2,0.8-0.5,1.1-0.8
								c0.3-0.3,0.6-0.6,0.8-1c0.2-0.3,0.3-0.7,0.4-1c0.1-0.3,0.1-0.6,0.2-0.9c0-0.1,0-0.3,0-0.4c0-0.1,0-0.2,0-0.3
								c0-0.2,0-0.4-0.1-0.5c0-0.1,0-0.2,0-0.2L174.9,107.4z"/>
							<path d="M174.9,107.3c0,0,0,0.1,0,0.2c0,0.1,0,0.3,0.1,0.5c0,0.1,0.1,0.2,0.1,0.3c0,0.1,0.1,0.2,0.1,0.4
								c0.1,0.3,0.3,0.5,0.5,0.8c0.2,0.3,0.4,0.6,0.7,0.8c0.3,0.3,0.7,0.5,1,0.7c0.4,0.2,0.8,0.3,1.3,0.4c0.5,0.1,0.9,0.1,1.4,0
								c0.5-0.1,0.9-0.2,1.4-0.4c0.4-0.2,0.8-0.4,1.2-0.7c0.3-0.3,0.7-0.6,0.9-1c0.3-0.3,0.4-0.7,0.6-1.1c0.1-0.4,0.2-0.7,0.3-1
								c0-0.2,0-0.3,0.1-0.4c0-0.1,0-0.3,0-0.4c0-0.2,0-0.4,0-0.5c0-0.1,0-0.2,0-0.2s0,0.1,0,0.2c0,0.1,0.1,0.3,0.1,0.5
								c0,0.1,0,0.2,0,0.4c0,0.1,0,0.3,0,0.4c0,0.3-0.1,0.7-0.2,1c-0.1,0.4-0.3,0.8-0.5,1.2c-0.2,0.4-0.5,0.8-0.9,1.1
								c-0.4,0.4-0.8,0.7-1.2,0.9c-0.5,0.2-1,0.4-1.5,0.5c-0.5,0.1-1.1,0.1-1.6,0.1c-0.5-0.1-1.1-0.2-1.5-0.4
								c-0.5-0.2-0.9-0.4-1.3-0.7c-0.4-0.3-0.7-0.6-1-0.9c-0.3-0.3-0.5-0.7-0.6-1c-0.1-0.2-0.1-0.3-0.2-0.4
								c-0.1-0.1-0.1-0.3-0.1-0.4c-0.1-0.3-0.1-0.4-0.2-0.5c0-0.1,0-0.2,0-0.2L174.9,107.3z"/>
						</g>
					</g>
				</g>
				<path d="M156.8,87.7c0,0,0-0.1,0.2-0.4c0.1-0.1,0.1-0.3,0.2-0.4c0.1-0.1,0.2-0.3,0.4-0.5c0.1-0.2,0.3-0.3,0.5-0.5
					c0.2-0.2,0.4-0.3,0.7-0.5c0.2-0.1,0.5-0.3,0.8-0.4c0.3-0.1,0.6-0.2,0.9-0.3c0.3-0.1,0.6-0.1,0.9-0.1c0.3,0,0.6,0,0.9,0
					c0.3,0,0.6,0.1,0.8,0.1c0.3,0,0.5,0.2,0.7,0.2c0.2,0.1,0.4,0.2,0.6,0.3c0.2,0.1,0.3,0.2,0.4,0.3c0.2,0.1,0.3,0.2,0.3,0.2
					s-0.2,0-0.4,0c-0.1,0-0.3,0-0.5,0c-0.2,0-0.4,0-0.6,0c-0.2,0-0.4,0-0.7,0c-0.2,0-0.5,0-0.7,0c-0.2,0-0.5,0-0.8,0.1
					c-0.2,0.1-0.5,0.1-0.8,0.1c-0.3,0.1-0.5,0.1-0.7,0.2c-0.2,0.1-0.5,0.2-0.7,0.3c-0.5,0.2-0.9,0.4-1.2,0.6
					c-0.4,0.2-0.7,0.4-0.9,0.5C156.9,87.7,156.8,87.7,156.8,87.7z"/>
				<path d="M184.4,87c0,0,0-0.1-0.2-0.4c-0.1-0.1-0.1-0.3-0.2-0.4c-0.1-0.1-0.2-0.3-0.4-0.5c-0.1-0.2-0.3-0.3-0.5-0.5
					c-0.2-0.2-0.4-0.3-0.7-0.5c-0.2-0.1-0.5-0.3-0.8-0.4c-0.3-0.1-0.6-0.2-0.9-0.3c-0.3-0.1-0.6-0.1-0.9-0.1c-0.3,0-0.6,0-0.9,0
					c-0.3,0-0.6,0.1-0.8,0.1c-0.3,0-0.5,0.2-0.7,0.2c-0.2,0.1-0.4,0.2-0.6,0.3c-0.2,0.1-0.3,0.2-0.4,0.3c-0.2,0.1-0.3,0.2-0.3,0.2
					s0.2,0,0.4,0c0.1,0,0.3,0,0.5,0c0.2,0,0.4,0,0.6,0c0.2,0,0.4,0,0.7,0c0.2,0,0.5,0,0.7,0c0.2,0,0.5,0,0.8,0.1
					c0.2,0.1,0.5,0.1,0.8,0.1c0.3,0.1,0.5,0.1,0.7,0.2c0.2,0.1,0.5,0.2,0.7,0.3c0.5,0.2,0.9,0.4,1.2,0.6c0.4,0.2,0.7,0.4,0.9,0.5
					C184.2,86.9,184.4,87,184.4,87z"/>
				<g>
					<path d="M167.8,104c-0.3,0-0.3,0.4,0,0.4C168.1,104.4,168.1,104,167.8,104z"/>
					<path d="M166.2,105.9c-0.3,0-0.3,0.4,0,0.4C166.4,106.3,166.4,105.9,166.2,105.9z"/>
					<path d="M168.3,107c-0.3,0-0.3,0.4,0,0.4C168.6,107.4,168.6,107,168.3,107z"/>
					<path d="M169.1,105.4c-0.3,0-0.3,0.4,0,0.4C169.4,105.8,169.4,105.4,169.1,105.4z"/>
				</g>
				<g>
					<path d="M180,102c-0.3,0-0.3,0.4,0,0.4C180.3,102.4,180.3,102,180,102z"/>
					<path d="M178.4,103.9c-0.3,0-0.3,0.4,0,0.4C178.6,104.3,178.6,103.9,178.4,103.9z"/>
					<path d="M180.5,105c-0.3,0-0.3,0.4,0,0.4C180.8,105.4,180.8,105,180.5,105z"/>
					<path d="M181.3,103.4c-0.3,0-0.3,0.4,0,0.4C181.6,103.8,181.6,103.4,181.3,103.4z"/>
				</g>
			</g>
			
				<ellipse transform="matrix(2.190691e-02 -0.9998 0.9998 2.190691e-02 52.4854 311.3075)" class="st1" cx="185.3" cy="128.8" rx="2.2" ry="2.2"/>
			<path class="st2" d="M199.1,134.6c-0.1,0.1-0.3,0.3-0.4,0.4c-1.5,1.3-3.2,2.5-5,3.7c-1.8,1.2-3.8,2.2-5.9,3.2
				c-2.1,1-4.3,1.9-6.5,2.7c-2.3,0.8-4.6,1.6-7,2.2c-4.8,1.3-9.9,2.2-15.1,2.9c-3.2,0.4-6.4,0.7-9.7,0.8c-1.2,0.1-2.4,0.1-3.6,0.1
				c0-1.8,0.1-3.6,0.1-5.4V48.6l2.9,4.2v89.4c0,1.8,0,3.6-0.1,5.4c1.2,0,2.4-0.1,3.6-0.1c3.3-0.1,6.5-0.4,9.7-0.8
				c5.2-0.7,10.3-1.6,15.1-2.9c2.4-0.6,4.7-1.4,7-2.2c2.3-0.8,4.5-1.7,6.5-2.7c2.1-1,4-2,5.9-3.2c0.8-0.5,1.6-1.1,2.4-1.6
				C199,134.3,199.1,134.4,199.1,134.6z"/>
			<path class="st5" d="M185.5,38.5c-0.7-3.1-3.8-5.1-7-4.4c-3.1,0.7-5.1,3.8-4.4,7c0.1,0.5,0.3,0.9,0.5,1.4l-15.4,16.3c0,0,0,0,0,0
				c5,4.7,12.9,4.5,17.7-0.5c3.3-3.5,4.2-8.4,2.7-12.6c0.5,0,0.9,0,1.4-0.1C184.2,44.7,186.2,41.6,185.5,38.5z"/>
			<path class="st0" d="M176.9,44.2C176.9,44.2,176.9,44.2,176.9,44.2L166,34c0,0,0,0,0,0c-2.8,3-2.7,7.7,0.3,10.5
				C169.3,47.3,174,47.2,176.9,44.2z"/>
			<path class="st6" d="M176.9,44.2L176.9,44.2c-0.3,0.3-0.5,0.5-0.8,0.7l-10.7-10.1c0,0,0,0,0,0c-0.1,0.1-0.2,0.2-0.3,0.3
				c0.3-0.4,0.6-0.8,0.9-1.2c0,0,0,0,0,0L176.9,44.2z"/>
			<path class="st0" d="M149.4,34.2c-0.3-0.3-1-1-2.1-1c-1.4,0-2.5,1-2.8,1.3c2.2,0.5,3,0.7,4.9,1.1L149.4,34.2z"/>
			<path class="st5" d="M146.8,33.9c0.5-2.1,2.5-3.4,4.6-2.9c2.1,0.5,3.4,2.5,2.9,4.6c-0.1,0.3-0.2,0.6-0.3,0.9l10.2,10.8
				c0,0,0,0,0,0c-3.3,3.1-8.6,3-11.8-0.3c-2.2-2.3-2.8-5.6-1.8-8.4c-0.3,0-0.6,0-0.9-0.1C147.7,38.1,146.4,36,146.8,33.9z"/>
			<path class="st0" d="M152.6,37.7C152.6,37.7,152.6,37.7,152.6,37.7l7.2-6.8c0,0,0,0,0,0c1.9,2,1.8,5.1-0.2,7
				C157.6,39.8,154.5,39.7,152.6,37.7z"/>
			<g class="st6">
				<path d="M150.7,38.8c-0.8,2.5-0.5,5.3,1.2,7.6c-1.1-2.3-1.1-5,0-7.3c-0.3,0-0.6-0.1-0.9-0.2C150.9,38.8,150.8,38.8,150.7,38.8z"
					/>
				<path d="M148.1,37.7c-0.4-0.8-0.5-1.7-0.3-2.6c0.2-1.1,0.9-2,1.8-2.5c-0.2,0.5-0.1,1.1,0.6,1.3c1.1,0.2,1.5-1.4,0.5-1.7
					c0.6-0.1,1.2-0.2,1.8,0c0.6,0.1,1.2,0.4,1.7,0.8c-0.5-1-1.4-1.8-2.6-2c-2.1-0.5-4.2,0.8-4.6,2.9C146.5,35.4,147,36.8,148.1,37.7
					z"/>
			</g>
			<path class="st6" d="M152.6,37.7L152.6,37.7c0.2,0.2,0.3,0.3,0.5,0.5l7.1-6.7c0,0,0,0,0,0c0.1,0.1,0.1,0.1,0.2,0.2
				c-0.2-0.3-0.4-0.5-0.6-0.8c0,0,0,0,0,0L152.6,37.7z"/>
			<path d="M150.5,32.2c1.1,0.2,0.7,2-0.4,1.7C149,33.6,149.4,31.9,150.5,32.2z"/>
			<path d="M180,35.9c-1.7,0.4-1.1,2.9,0.6,2.6C182.2,38.1,181.7,35.5,180,35.9z"/>
			<g>
				<g>
					<path d="M105,79.3c-0.1,0.1-0.4,0.7-0.8,1.5c-0.3,0.5-0.7,1.1-1.1,1.7c-0.5,0.6-1,1.4-1.6,2.1c-0.6,0.8-1.3,1.5-2.1,2.3
						c-0.8,0.8-1.7,1.6-2.6,2.4c-1,0.8-2,1.5-3.1,2.3c-0.3,0.2-0.5,0.4-0.8,0.5c-0.3,0.2-0.6,0.3-0.8,0.5c-0.6,0.3-1.1,0.7-1.7,1
						c-0.6,0.3-1.2,0.6-1.8,0.9c-0.6,0.3-1.2,0.6-1.8,0.8c-1.2,0.5-2.4,1-3.5,1.4c-0.6,0.2-1.3,0.5-1.9,0.7c-2.9-0.4-5.6-1-8.1-1.8
						c0.8-0.1,1.8-0.2,2.8-0.3c0.9-0.1,1.9-0.3,3-0.5c1.1-0.2,2.2-0.5,3.3-0.8c1.1-0.3,2.3-0.6,3.5-1c0.6-0.2,1.2-0.4,1.8-0.6
						c0.6-0.2,1.2-0.4,1.8-0.7c0.6-0.2,1.2-0.5,1.7-0.8c0.3-0.1,0.6-0.3,0.8-0.4c0.3-0.1,0.6-0.3,0.8-0.4c1.1-0.6,2.1-1.2,3.1-1.9
						c1-0.7,1.9-1.3,2.8-2c0.8-0.7,1.6-1.4,2.3-2.1c0.7-0.7,1.3-1.3,1.8-1.9c0.5-0.6,0.9-1.1,1.3-1.6
						C104.5,79.9,104.9,79.4,105,79.3z"/>
					<path d="M119.3,69.7c1.5-4.1-0.6-9.6-6.2-9.6c-2.1,0-3.7,0.8-4.8,2c0.9-2.4,2.9-4.2,6.2-4.2C121.3,57.8,122.9,65.9,119.3,69.7z
						"/>
					<path d="M116.2,54.7c0,0,0.1-0.1,0.4-0.1c0.1,0,0.3-0.1,0.5-0.1c0.2,0,0.4-0.1,0.6-0.1c0.2,0,0.5,0,0.7,0
						c0.3,0,0.5,0.1,0.8,0.2c0.3,0.1,0.6,0.2,0.8,0.3c0.3,0.1,0.5,0.3,0.8,0.5c0.3,0.2,0.5,0.4,0.7,0.6c0.2,0.2,0.4,0.4,0.6,0.7
						c0.2,0.2,0.3,0.5,0.4,0.7c0.1,0.2,0.2,0.5,0.3,0.7c0.1,0.2,0.2,0.4,0.2,0.6c0,0.2,0.1,0.3,0.1,0.5c0,0.3,0.1,0.4,0.1,0.4
						s-0.1-0.1-0.3-0.3c-0.1-0.1-0.2-0.2-0.3-0.4c-0.1-0.1-0.2-0.3-0.4-0.4c-0.1-0.1-0.3-0.3-0.4-0.5c-0.2-0.2-0.3-0.3-0.5-0.5
						c-0.2-0.2-0.4-0.3-0.6-0.5c-0.2-0.1-0.4-0.3-0.6-0.5c-0.2-0.1-0.4-0.3-0.7-0.4c-0.2-0.1-0.4-0.2-0.7-0.4
						c-0.4-0.2-0.9-0.4-1.3-0.5c-0.4-0.1-0.7-0.2-1-0.3C116.3,54.7,116.2,54.7,116.2,54.7z"/>
					<path class="st7" d="M63.8,68.4c0.7,6.2-3.1,12.8-8.2,17.1c-5.2-3.1-9.8-13.3-9.8-13.3l17.4-7.1C63.2,65.6,63.7,67.8,63.8,68.4
						z"/>
				</g>
			</g>
			<circle class="st1" cx="121.3" cy="123.5" r="3.6"/>
			
				<ellipse transform="matrix(0.9873 -0.1589 0.1589 0.9873 -17.8369 22.0723)" class="st1" cx="129.1" cy="122.6" rx="2.2" ry="2.2"/>
			<circle class="st1" cx="129.7" cy="133.9" r="6.2"/>
			<path class="st1" d="M142.9,150.5c-0.1,0-0.2,0-0.3,0c-0.7,0-2.2-0.1-3.7-0.1V18.8l3.9-5.6L142.9,150.5z"/>
			<path class="st0" d="M146.4,145.2c-28,0-47.2-6.9-53.2-13.4l-4.5,7.2c3.1,2.7,7.6,5.4,14.3,7.9c11.6,4.3,27,6.6,43.4,6.6
				s31.7-2.4,43.4-6.6c4.3-1.6,7.7-3.3,10.4-5l-1.5-9.3C192,138.8,173.3,145.2,146.4,145.2z"/>
			<g>
				<g>
					<path d="M146.4,152.5c-16.2,0-31.5-2.3-43-6.6c-5.5-2-10-4.4-13.2-7.1l0.3-0.3c3.2,2.6,7.6,5,13.1,7
						c11.5,4.2,26.7,6.5,42.9,6.5c16.2,0,31.4-2.3,42.9-6.5c3.6-1.3,6.8-2.8,9.4-4.4l0-0.1l0.4-0.1l0.1,0.4l-0.1,0.1
						c-2.7,1.6-5.9,3.1-9.6,4.5C177.9,150.2,162.6,152.5,146.4,152.5z"/>
				</g>
			</g>
			<g>
				<g>
					<path d="M146.4,146.6c-26.5,0-45.6-6.3-52.9-12.6l-0.1,0.1l-0.4-0.2l0.3-0.5l0.2,0.2c7.1,6.3,26.2,12.7,52.8,12.7
						c26,0,43.4-5.8,51.1-11.3l0.2,0.3C190.1,140.7,172.6,146.6,146.4,146.6z"/>
				</g>
			</g>
			<g>
				<circle class="st0" cx="146.2" cy="157.1" r="6.4"/>
				<path d="M146.2,164.3c-4,0-7.2-3.2-7.2-7.2c0-4,3.2-7.2,7.2-7.2c4,0,7.2,3.2,7.2,7.2C153.4,161.1,150.1,164.3,146.2,164.3z
					 M146.2,151.6c-3.1,0-5.5,2.5-5.5,5.5c0,3.1,2.5,5.5,5.5,5.5c3.1,0,5.5-2.5,5.5-5.5C151.7,154,149.2,151.6,146.2,151.6z"/>
			</g>
			<path class="st6" d="M151,157.1c0,1.7-0.9,3.2-2.2,4.1c0.8-0.9,1.3-2,1.3-3.3c0-2.7-2.2-4.9-4.9-4.9c-1,0-1.9,0.3-2.7,0.8
				c0.9-1,2.2-1.6,3.6-1.6C148.9,152.2,151,154.4,151,157.1z"/>
			<g>
				<path class="st8" d="M145.9,159.4l-0.4,0c-0.2-1.2-0.4-2.2-0.6-3.1c-0.1,0.3-0.2,0.6-0.4,1.1c-0.1,0.5-0.2,0.8-0.3,0.9
					c0,0,0,0,0,0c0,0,0,0,0,0c0,0-0.1,0-0.2,0c-0.1,0-0.2,0-0.2,0c0-0.1-0.1-0.4-0.3-1c-0.2-0.6-0.3-0.9-0.3-1.1
					c-0.1,0.6-0.3,1.6-0.7,3l-0.3,0c0-0.4,0.2-1,0.4-1.8c0.2-0.8,0.3-1.4,0.3-1.9c0.1,0,0.1,0,0.1,0c0,0,0.2,0,0.4,0
					c0,0,0.1,0.2,0.2,0.5c0.1,0.3,0.2,0.6,0.3,1c0.1,0.4,0.2,0.6,0.2,0.6c0.1-0.2,0.2-0.6,0.4-1.2c0.1-0.5,0.2-0.9,0.3-1
					c0.1,0,0.2,0,0.5,0c0.1,0.3,0.2,0.7,0.3,1.1c0.1,0.4,0.2,0.9,0.3,1.4C145.8,158.7,145.9,159.1,145.9,159.4z"/>
				<path class="st8" d="M149.7,159.4l-0.4,0c-0.2-1.2-0.4-2.2-0.6-3.1c-0.1,0.3-0.2,0.6-0.4,1.1c-0.1,0.5-0.2,0.8-0.3,0.9
					c0,0,0,0,0,0c0,0,0,0,0,0c0,0-0.1,0-0.2,0c-0.1,0-0.2,0-0.2,0c0-0.1-0.1-0.4-0.3-1c-0.2-0.6-0.3-0.9-0.3-1.1
					c-0.1,0.6-0.3,1.6-0.7,3l-0.3,0c0-0.4,0.2-1,0.4-1.8c0.2-0.8,0.3-1.4,0.3-1.9c0.1,0,0.1,0,0.1,0c0,0,0.2,0,0.4,0
					c0,0,0.1,0.2,0.2,0.5c0.1,0.3,0.2,0.6,0.3,1c0.1,0.4,0.2,0.6,0.2,0.6c0.1-0.2,0.2-0.6,0.4-1.2c0.1-0.5,0.2-0.9,0.3-1
					c0.1,0,0.2,0,0.5,0c0.1,0.3,0.2,0.7,0.3,1.1c0.1,0.4,0.2,0.9,0.3,1.4C149.6,158.7,149.7,159.1,149.7,159.4z"/>
			</g>
			<g>
				<g>
					<path class="st9" d="M147.4,181.9c-2.5,0-4.6-2.1-4.6-4.6c0-2.5,2.1-4.6,4.6-4.6c2.5,0,4.6,2.1,4.6,4.6
						C152,179.9,150,181.9,147.4,181.9z M147.4,174.4c-1.6,0-2.9,1.3-2.9,2.9c0,1.6,1.3,2.9,2.9,2.9c1.6,0,2.9-1.3,2.9-2.9
						C150.4,175.7,149,174.4,147.4,174.4z"/>
				</g>
				<g class="st10">
					<path class="st0" d="M147,182.6c-2.5,0-4.6-2.1-4.6-4.6c0-2.5,2.1-4.6,4.6-4.6c2.5,0,4.6,2.1,4.6,4.6
						C151.6,180.5,149.6,182.6,147,182.6z M147,175.1c-1.6,0-2.9,1.3-2.9,2.9s1.3,2.9,2.9,2.9s2.9-1.3,2.9-2.9
						S148.7,175.1,147,175.1z"/>
				</g>
				<g>
					<g>
						<circle cx="147.4" cy="177.3" r="3.8"/>
					</g>
				</g>
				<g>
					<circle class="st9" cx="142.8" cy="171.8" r="1.3"/>
					<path class="st9" d="M142.8,173.9c-1.2,0-2.1-0.9-2.1-2.1s0.9-2.1,2.1-2.1s2.1,0.9,2.1,2.1S144,173.9,142.8,173.9z
						 M142.8,171.3c-0.2,0-0.5,0.2-0.5,0.5s0.2,0.5,0.5,0.5s0.5-0.2,0.5-0.5S143.1,171.3,142.8,171.3z"/>
				</g>
				<g>
					<circle class="st9" cx="147.5" cy="169.9" r="1.3"/>
					<path class="st9" d="M147.5,172c-1.2,0-2.1-0.9-2.1-2.1c0-1.2,0.9-2.1,2.1-2.1c1.2,0,2.1,0.9,2.1,2.1
						C149.6,171.1,148.7,172,147.5,172z M147.5,169.4c-0.2,0-0.5,0.2-0.5,0.5c0,0.2,0.2,0.5,0.5,0.5c0.2,0,0.5-0.2,0.5-0.5
						C147.9,169.6,147.7,169.4,147.5,169.4z"/>
				</g>
				<g>
					<circle class="st11" cx="152.3" cy="171.9" r="1.3"/>
					<path class="st9" d="M152.3,174c-1.2,0-2.1-0.9-2.1-2.1c0-1.2,0.9-2.1,2.1-2.1c1.2,0,2.1,0.9,2.1,2.1
						C154.4,173.1,153.4,174,152.3,174z M152.3,171.5c-0.2,0-0.5,0.2-0.5,0.5c0,0.2,0.2,0.5,0.5,0.5c0.2,0,0.5-0.2,0.5-0.5
						C152.7,171.7,152.5,171.5,152.3,171.5z"/>
				</g>
				<g>
					<circle class="st9" cx="142.4" cy="172.2" r="1.3"/>
					<path class="st9" d="M142.4,174.3c-1.2,0-2.1-0.9-2.1-2.1c0-1.2,0.9-2.1,2.1-2.1c1.2,0,2.1,0.9,2.1,2.1
						C144.5,173.4,143.6,174.3,142.4,174.3z M142.4,171.7c-0.2,0-0.5,0.2-0.5,0.5c0,0.2,0.2,0.5,0.5,0.5s0.5-0.2,0.5-0.5
						C142.9,172,142.7,171.7,142.4,171.7z"/>
				</g>
				<g>
					<circle class="st9" cx="147.1" cy="170.3" r="1.3"/>
					<path class="st9" d="M147.1,172.4c-1.2,0-2.1-0.9-2.1-2.1c0-1.2,0.9-2.1,2.1-2.1c1.2,0,2.1,0.9,2.1,2.1
						C149.2,171.5,148.2,172.4,147.1,172.4z M147.1,169.9c-0.2,0-0.5,0.2-0.5,0.5c0,0.2,0.2,0.5,0.5,0.5c0.2,0,0.5-0.2,0.5-0.5
						C147.5,170.1,147.3,169.9,147.1,169.9z"/>
				</g>
				<g>
					<circle class="st9" cx="151.9" cy="172.3" r="1.3"/>
					<path class="st9" d="M151.9,174.4c-1.2,0-2.1-0.9-2.1-2.1c0-1.2,0.9-2.1,2.1-2.1c1.2,0,2.1,0.9,2.1,2.1
						C154,173.5,153,174.4,151.9,174.4z M151.9,171.9c-0.2,0-0.5,0.2-0.5,0.5s0.2,0.5,0.5,0.5s0.5-0.2,0.5-0.5
						S152.1,171.9,151.9,171.9z"/>
				</g>
				<g>
					<g>
						<circle cx="142.8" cy="171.8" r="1.3"/>
					</g>
				</g>
				<g>
					<g>
						<circle cx="147.5" cy="169.9" r="1.3"/>
					</g>
				</g>
				<g>
					<g>
						<circle cx="152.3" cy="171.9" r="1.3"/>
					</g>
				</g>
			</g>
		</g>
		<g>
			<g>
				<g>
					<path class="st12" d="M50.4,171.9v13h-6.9v-11.3c0-1.9-0.9-3.1-2.5-3.1c-1.7,0-2.8,1.3-2.8,3.3v11.1h-6.9v-11.3
						c0-1.9-0.9-3.1-2.5-3.1c-1.7,0-2.8,1.3-2.8,3.3v11.1h-6.8v-20.5h6.8v3.2c1.2-2.1,3.2-3.2,5.7-3.2c2.9,0,5.1,1.6,6,4.2
						c1.1-2.7,3.3-4.2,6.2-4.2C47.8,164.3,50.4,167.3,50.4,171.9z"/>
				</g>
				<g>
					<path class="st12" d="M62.6,164.1c6.1,0,10,3.6,10,9v11.8h-6.8v-4.4h-6.3v4.4h-6.8v-11.8C52.8,167.6,56.6,164.1,62.6,164.1z
						 M62.7,169.7c-1.9,0-3.1,1.3-3.1,3.4v2.5h6.3v-2.5C65.9,171.1,64.6,169.7,62.7,169.7z"/>
				</g>
				<g>
					<path class="st12" d="M83.6,169.2c-0.8,0-1.3,0.2-1.3,0.8c0,2.6,10.6,1,10.6,8.4c0,4.6-4,6.6-8.6,6.6c-3.6,0-7.6-1.2-10.3-3.3
						l2.5-5.1c2.1,1.8,5.7,3.2,7.8,3.2c1,0,1.6-0.3,1.6-1.1c0-2.7-10.6-0.9-10.6-8.1c0-4.1,3.5-6.7,8.8-6.7c3.3,0,6.6,1,8.9,2.4
						l-2.5,5.2C88.6,170.5,85.4,169.2,83.6,169.2z"/>
				</g>
				<g>
					<path class="st12" d="M104.9,169.8c-2.5,0-4.2,2-4.2,4.7c0,2.8,1.8,4.7,4.2,4.7c1.5,0,3.3-0.9,4.7-2.3l3.9,4.2
						c-2.3,2.5-5.8,4.1-8.9,4.1c-6.3,0-10.9-4.5-10.9-10.6c0-6,4.7-10.4,11.1-10.4c3.1,0,6.6,1.5,8.7,3.7l-3.9,4.7
						C108.4,170.9,106.5,169.8,104.9,169.8z"/>
				</g>
				<g>
					<path class="st12" d="M136.1,174.6c0,6.1-4.7,10.6-11.3,10.6c-6.5,0-11.3-4.5-11.3-10.6c0-6.1,4.7-10.5,11.3-10.5
						C131.4,164.1,136.1,168.5,136.1,174.6z M120.5,174.6c0,2.8,2,4.9,4.4,4.9c2.3,0,4.2-2.1,4.2-4.9s-1.9-4.8-4.2-4.8
						C122.6,169.8,120.5,171.8,120.5,174.6z"/>
				</g>
			</g>
			<g>
				<g>
					<path class="st12" d="M191.6,171.9v13h-6.9v-11.3c0-1.9-0.9-3.1-2.5-3.1c-1.7,0-2.8,1.3-2.8,3.3v11.1h-6.9v-11.3
						c0-1.9-0.9-3.1-2.5-3.1c-1.7,0-2.8,1.3-2.8,3.3v11.1h-6.8v-20.5h6.8v3.2c1.2-2.1,3.2-3.2,5.7-3.2c2.9,0,5.1,1.6,6,4.2
						c1.1-2.7,3.3-4.2,6.2-4.2C189,164.3,191.6,167.3,191.6,171.9z"/>
				</g>
				<g>
					<path class="st12" d="M213.6,164.3v20.5h-6.8v-3.3c-1.3,2.1-3.4,3.3-6,3.3c-4.2,0-6.9-3-6.9-7.6v-13h6.9v11.3
						c0,1.9,1.1,3.1,2.7,3.1c2,0,3.3-1.3,3.3-3.3v-11.1H213.6z"/>
				</g>
				<g>
					<path class="st12" d="M236.2,171.9v13h-6.9v-11.3c0-1.9-1.1-3.1-2.7-3.1c-2,0-3.3,1.3-3.3,3.3v11.1h-6.8v-20.5h6.8v3.3
						c1.3-2.1,3.4-3.3,6-3.3C233.5,164.3,236.2,167.3,236.2,171.9z"/>
				</g>
				<g>
					<path class="st12" d="M259.1,174.6c0,6.2-4.5,10.3-11.4,10.3h-8.9v-20.5h9.2C254.7,164.3,259.1,168.3,259.1,174.6z
						 M252.2,174.6c0-3-1.7-5-4.4-5h-2.2v10h2.5C250.6,179.6,252.2,177.7,252.2,174.6z"/>
				</g>
				<g>
					<path class="st12" d="M282.6,174.6c0,6.1-4.7,10.6-11.3,10.6s-11.3-4.5-11.3-10.6c0-6.1,4.7-10.5,11.3-10.5
						S282.6,168.5,282.6,174.6z M267,174.6c0,2.8,2,4.9,4.4,4.9c2.3,0,4.2-2.1,4.2-4.9s-1.9-4.8-4.2-4.8
						C269,169.8,267,171.8,267,174.6z"/>
				</g>
			</g>
			<g>
				<g>
					<path class="st12" d="M48.8,173.6v13h-6.9v-11.3c0-1.9-0.9-3.1-2.5-3.1c-1.7,0-2.8,1.3-2.8,3.3v11.1h-6.9v-11.3
						c0-1.9-0.9-3.1-2.5-3.1c-1.7,0-2.8,1.3-2.8,3.3v11.1h-6.8V166h6.8v3.2c1.2-2.1,3.2-3.2,5.7-3.2c2.9,0,5.1,1.6,6,4.2
						c1.1-2.7,3.3-4.2,6.2-4.2C46.2,166,48.8,169,48.8,173.6z"/>
				</g>
				<g>
					<path class="st12" d="M61,165.7c6.1,0,10,3.6,10,9v11.8h-6.8v-4.4h-6.3v4.4h-6.8v-11.8C51.1,169.3,55,165.7,61,165.7z
						 M61,171.4c-1.9,0-3.1,1.3-3.1,3.4v2.5h6.3v-2.5C64.2,172.7,62.9,171.4,61,171.4z"/>
				</g>
				<g>
					<path class="st12" d="M81.9,170.9c-0.8,0-1.3,0.2-1.3,0.8c0,2.6,10.6,1,10.6,8.4c0,4.6-4,6.6-8.6,6.6c-3.6,0-7.6-1.2-10.3-3.3
						l2.5-5.1c2.1,1.8,5.7,3.2,7.8,3.2c1,0,1.6-0.3,1.6-1.1c0-2.7-10.6-0.9-10.6-8.1c0-4.1,3.5-6.7,8.8-6.7c3.3,0,6.6,1,8.9,2.4
						l-2.5,5.2C86.9,172.2,83.7,170.9,81.9,170.9z"/>
				</g>
				<g>
					<path class="st12" d="M103.3,171.4c-2.5,0-4.2,2-4.2,4.7c0,2.8,1.8,4.7,4.2,4.7c1.5,0,3.3-0.9,4.7-2.3l3.9,4.2
						c-2.3,2.5-5.8,4.1-8.9,4.1c-6.3,0-10.9-4.5-10.9-10.6c0-6,4.7-10.4,11.1-10.4c3.1,0,6.6,1.5,8.7,3.7l-3.9,4.7
						C106.7,172.5,104.8,171.4,103.3,171.4z"/>
				</g>
				<g>
					<path class="st12" d="M134.5,176.3c0,6.1-4.7,10.6-11.3,10.6c-6.5,0-11.3-4.5-11.3-10.6c0-6.1,4.7-10.5,11.3-10.5
						C129.7,165.8,134.5,170.2,134.5,176.3z M118.9,176.3c0,2.8,2,4.9,4.4,4.9c2.3,0,4.2-2.1,4.2-4.9s-1.9-4.8-4.2-4.8
						C120.9,171.4,118.9,173.5,118.9,176.3z"/>
				</g>
			</g>
			<g>
				<g>
					<path class="st12" d="M189.9,173.6v13h-6.9v-11.3c0-1.9-0.9-3.1-2.5-3.1c-1.7,0-2.8,1.3-2.8,3.3v11.1h-6.9v-11.3
						c0-1.9-0.9-3.1-2.5-3.1c-1.7,0-2.8,1.3-2.8,3.3v11.1h-6.8V166h6.8v3.2c1.2-2.1,3.2-3.2,5.7-3.2c2.9,0,5.1,1.6,6,4.2
						c1.1-2.7,3.3-4.2,6.2-4.2C187.3,166,189.9,169,189.9,173.6z"/>
				</g>
				<g>
					<path class="st12" d="M211.9,166v20.5h-6.8v-3.3c-1.3,2.1-3.4,3.3-6,3.3c-4.2,0-6.9-3-6.9-7.6v-13h6.9v11.3
						c0,1.9,1.1,3.1,2.7,3.1c2,0,3.3-1.3,3.3-3.3V166H211.9z"/>
				</g>
				<g>
					<path class="st12" d="M234.5,173.6v13h-6.9v-11.3c0-1.9-1.1-3.1-2.7-3.1c-2,0-3.3,1.3-3.3,3.3v11.1h-6.8V166h6.8v3.3
						c1.3-2.1,3.4-3.3,6-3.3C231.8,166,234.5,169,234.5,173.6z"/>
				</g>
				<g>
					<path class="st12" d="M257.5,176.3c0,6.2-4.5,10.3-11.4,10.3h-8.9V166h9.2C253.1,166,257.5,170,257.5,176.3z M250.5,176.3
						c0-3-1.7-5-4.4-5h-2.2v10h2.5C249,181.3,250.5,179.3,250.5,176.3z"/>
				</g>
				<g>
					<path class="st12" d="M280.9,176.3c0,6.1-4.7,10.6-11.3,10.6s-11.3-4.5-11.3-10.6c0-6.1,4.7-10.5,11.3-10.5
						S280.9,170.2,280.9,176.3z M265.3,176.3c0,2.8,2,4.9,4.4,4.9c2.3,0,4.2-2.1,4.2-4.9s-1.9-4.8-4.2-4.8
						C267.3,171.4,265.3,173.5,265.3,176.3z"/>
				</g>
			</g>
			<g>
				<g>
					<path class="st0" d="M50.4,171.9v13h-6.9v-11.3c0-1.9-0.9-3.1-2.5-3.1c-1.7,0-2.8,1.3-2.8,3.3v11.1h-6.9v-11.3
						c0-1.9-0.9-3.1-2.5-3.1c-1.7,0-2.8,1.3-2.8,3.3v11.1h-6.8v-20.5h6.8v3.2c1.2-2.1,3.2-3.2,5.7-3.2c2.9,0,5.1,1.6,6,4.2
						c1.1-2.7,3.3-4.2,6.2-4.2C47.8,164.3,50.4,167.3,50.4,171.9z"/>
					<path class="st0" d="M62.6,164.1c6.1,0,10,3.6,10,9v11.8h-6.8v-4.4h-6.3v4.4h-6.8v-11.8C52.8,167.6,56.6,164.1,62.6,164.1z
						 M62.7,169.7c-1.9,0-3.1,1.3-3.1,3.4v2.5h6.3v-2.5C65.9,171.1,64.6,169.7,62.7,169.7z"/>
					<path class="st0" d="M83.6,169.2c-0.8,0-1.3,0.2-1.3,0.8c0,2.6,10.6,1,10.6,8.4c0,4.6-4,6.6-8.6,6.6c-3.6,0-7.6-1.2-10.3-3.3
						l2.5-5.1c2.1,1.8,5.7,3.2,7.8,3.2c1,0,1.6-0.3,1.6-1.1c0-2.7-10.6-0.9-10.6-8.1c0-4.1,3.5-6.7,8.8-6.7c3.3,0,6.6,1,8.9,2.4
						l-2.5,5.2C88.6,170.5,85.4,169.2,83.6,169.2z"/>
					<path class="st0" d="M104.9,169.8c-2.5,0-4.2,2-4.2,4.7c0,2.8,1.8,4.7,4.2,4.7c1.5,0,3.3-0.9,4.7-2.3l3.9,4.2
						c-2.3,2.5-5.8,4.1-8.9,4.1c-6.3,0-10.9-4.5-10.9-10.6c0-6,4.7-10.4,11.1-10.4c3.1,0,6.6,1.5,8.7,3.7l-3.9,4.7
						C108.4,170.9,106.5,169.8,104.9,169.8z"/>
					<path class="st0" d="M136.1,174.6c0,6.1-4.7,10.6-11.3,10.6c-6.5,0-11.3-4.5-11.3-10.6c0-6.1,4.7-10.5,11.3-10.5
						C131.4,164.1,136.1,168.5,136.1,174.6z M120.5,174.6c0,2.8,2,4.9,4.4,4.9c2.3,0,4.2-2.1,4.2-4.9s-1.9-4.8-4.2-4.8
						C122.6,169.8,120.5,171.8,120.5,174.6z"/>
				</g>
			</g>
			<g>
				<g>
					<path class="st0" d="M191.6,171.9v13h-6.9v-11.3c0-1.9-0.9-3.1-2.5-3.1c-1.7,0-2.8,1.3-2.8,3.3v11.1h-6.9v-11.3
						c0-1.9-0.9-3.1-2.5-3.1c-1.7,0-2.8,1.3-2.8,3.3v11.1h-6.8v-20.5h6.8v3.2c1.2-2.1,3.2-3.2,5.7-3.2c2.9,0,5.1,1.6,6,4.2
						c1.1-2.7,3.3-4.2,6.2-4.2C189,164.3,191.6,167.3,191.6,171.9z"/>
					<path class="st0" d="M213.6,164.3v20.5h-6.8v-3.3c-1.3,2.1-3.4,3.3-6,3.3c-4.2,0-6.9-3-6.9-7.6v-13h6.9v11.3
						c0,1.9,1.1,3.1,2.7,3.1c2,0,3.3-1.3,3.3-3.3v-11.1H213.6z"/>
					<path class="st0" d="M236.2,171.9v13h-6.9v-11.3c0-1.9-1.1-3.1-2.7-3.1c-2,0-3.3,1.3-3.3,3.3v11.1h-6.8v-20.5h6.8v3.3
						c1.3-2.1,3.4-3.3,6-3.3C233.5,164.3,236.2,167.3,236.2,171.9z"/>
					<path class="st0" d="M259.1,174.6c0,6.2-4.5,10.3-11.4,10.3h-8.9v-20.5h9.2C254.7,164.3,259.1,168.3,259.1,174.6z M252.2,174.6
						c0-3-1.7-5-4.4-5h-2.2v10h2.5C250.6,179.6,252.2,177.7,252.2,174.6z"/>
					<path class="st0" d="M282.6,174.6c0,6.1-4.7,10.6-11.3,10.6s-11.3-4.5-11.3-10.6c0-6.1,4.7-10.5,11.3-10.5
						S282.6,168.5,282.6,174.6z M267,174.6c0,2.8,2,4.9,4.4,4.9c2.3,0,4.2-2.1,4.2-4.9s-1.9-4.8-4.2-4.8
						C269,169.8,267,171.8,267,174.6z"/>
				</g>
			</g>
		</g>
		
			<ellipse transform="matrix(0.9812 -0.1932 0.1932 0.9812 -31.5473 11.6154)" class="st9" cx="43.8" cy="167.6" rx="0.9" ry="0.9"/>
		<ellipse transform="matrix(0.938 -0.3465 0.3465 0.938 -55.0333 26.1765)" class="st9" cx="45.7" cy="167" rx="0.6" ry="0.6"/>
		
			<ellipse transform="matrix(0.9812 -0.1932 0.1932 0.9812 -31.9185 12.1573)" class="st9" cx="46.4" cy="169.8" rx="1.6" ry="1.6"/>
		<ellipse transform="matrix(0.9812 -0.1932 0.1932 0.9812 -32.403 20.0192)" class="st9" cx="86.5" cy="176.2" rx="0.9" ry="0.9"/>
		<ellipse transform="matrix(0.938 -0.3465 0.3465 0.938 -55.3691 41.4967)" class="st9" cx="88.4" cy="175.6" rx="0.6" ry="0.6"/>
		
			<ellipse transform="matrix(0.9812 -0.1932 0.1932 0.9812 -32.7759 20.5622)" class="st9" cx="89.1" cy="178.4" rx="1.6" ry="1.6"/>
		
			<ellipse transform="matrix(0.9812 -0.1932 0.1932 0.9812 -30.1159 28.1061)" class="st9" cx="129.1" cy="168.5" rx="0.9" ry="0.9"/>
		<ellipse transform="matrix(0.938 -0.3465 0.3465 0.938 -50.0629 55.7849)" class="st9" cx="131" cy="167.9" rx="0.6" ry="0.6"/>
		
			<ellipse transform="matrix(0.9812 -0.1932 0.1932 0.9812 -30.4872 28.6476)" class="st9" cx="131.7" cy="170.7" rx="1.6" ry="1.6"/>
		
			<ellipse transform="matrix(0.7387 -0.674 0.674 0.7387 -73.8552 155.7152)" class="st9" cx="163.9" cy="173.1" rx="0.9" ry="0.9"/>
		
			<ellipse transform="matrix(0.6223 -0.7828 0.7828 0.6223 -73.1455 192.0328)" class="st9" cx="162.4" cy="171.8" rx="0.6" ry="0.6"/>
		
			<ellipse transform="matrix(0.7387 -0.674 0.674 0.7387 -71.4627 155.1793)" class="st9" cx="164.4" cy="169.8" rx="1.6" ry="1.6"/>
		<ellipse transform="matrix(0.7387 -0.674 0.674 0.7387 -60.283 186.8469)" class="st9" cx="210.9" cy="171.2" rx="0.9" ry="0.9"/>
		
			<ellipse transform="matrix(0.6223 -0.7827 0.7827 0.6223 -53.9009 228.0294)" class="st9" cx="209.4" cy="169.9" rx="0.6" ry="0.6"/>
		
			<ellipse transform="matrix(0.7387 -0.674 0.674 0.7387 -57.8918 186.3097)" class="st9" cx="211.4" cy="167.8" rx="1.6" ry="1.6"/>
		
			<ellipse transform="matrix(1.153145e-02 -0.9999 0.9999 1.153145e-02 83.7634 444.5879)" class="st9" cx="266.8" cy="179.9" rx="0.9" ry="0.9"/>
		
			<ellipse transform="matrix(0.9891 -0.1475 0.1475 0.9891 -23.6795 41.0385)" class="st9" cx="264.8" cy="180.1" rx="0.6" ry="0.6"/>
		
			<ellipse transform="matrix(1.152485e-02 -0.9999 0.9999 1.152485e-02 84.3573 439.8623)" class="st9" cx="264.7" cy="177.3" rx="1.6" ry="1.6"/>
	</g>
</g>
</svg>
