<?xml version="1.0" encoding="utf-8"?>
<!-- Generator: Adobe Illustrator 21.0.0, SVG Export Plug-In . SVG Version: 6.00 Build 0)  -->
<svg version="1.1" xmlns="http://www.w3.org/2000/svg" xmlns:xlink="http://www.w3.org/1999/xlink" x="0px" y="0px"
	 viewBox="0 0 300 100" style="enable-background:new 0 0 300 100;" xml:space="preserve">
<style type="text/css">
	.st0{fill:#FFFFFF;}
	.st1{opacity:0.2;fill:#FFFFFF;}
	.st2{opacity:0.25;fill:#FFFFFF;}
	.st3{opacity:0.48;}
	.st4{fill:#FCFCFC;}
	.st5{opacity:0.2;}
	.st6{fill:#FFFDFD;}
	.st7{fill:none;stroke:#000000;stroke-width:0.5;stroke-miterlimit:10;}
	.st8{fill:#A6B0B0;}
</style>
<g id="Layer_5">
</g>
<g id="branco">
</g>
<g id="sombra">
</g>
<g id="design">
</g>
<g id="borda">
	<g>
		<g>
			<path class="st0" d="M170.1,22.8c0.2-0.2,0.8-0.7,1.6-0.8c1.1,0,1.9,0.8,2.1,1c-1.7,0.4-2.3,0.6-3.8,0.9L170.1,22.8z"/>
			<path class="st0" d="M150.3,79.8c-0.1,0-0.1,0-0.2,0c-0.3,0-1.1,0-1.9-0.1c-0.7,0-1.4,0-1.7-0.1c-1.3-0.1-2.7-0.2-4-0.4
				c-2.6-0.3-5.2-0.8-7.7-1.5l-0.9-0.3c-0.3-0.1-0.6-0.2-0.9-0.3l-0.5-0.1c-0.1,0-0.3-0.1-0.4-0.1c-0.3-0.1-0.6-0.2-0.9-0.3
				c-1.2-0.4-2.3-0.9-3.3-1.4c-1.1-0.5-2.1-1-3-1.6c-0.5-0.3-1-0.7-1.5-1c1.5-2.2,2.9-4.5,4.4-6.7c3.8-5.5,7.6-11,11.4-16.6
				c-3.2,1.3-6.1,2.2-8.8,2.7c-2.8,0.6-5.3,0.8-7.6,0.8c-1.4,0-2.7-0.1-3.9-0.3c-0.6-0.1-1.1-0.2-1.7-0.3c-0.1,0-0.3-0.1-0.4-0.1
				c-0.7-0.2-1.4-0.3-2.1-0.6c-0.6-0.2-1.3-0.4-1.9-0.7c-0.1-0.1-0.3-0.1-0.4-0.2c-2.9-1.2-5.1-2.9-6.9-4.5
				c-3.5-3.3-4.9-6.7-4.9-6.7l9.7-4l30.2-12.3l7.6-11l2-2.9L150.3,79.8z"/>
			<path class="st0" d="M179.1,71.7c-0.1,0.1-0.1,0.1-0.2,0.2c-0.8,0.7-1.6,1.3-2.6,1.9c-0.9,0.6-1.9,1.1-3,1.6
				c-1.1,0.5-2.2,1-3.3,1.4c-1.2,0.4-2.4,0.8-3.6,1.1c-2.5,0.7-5.1,1.1-7.7,1.5c-1.6,0.2-3.3,0.3-5,0.4c-0.6,0-1.2,0-1.9,0.1
				c0-0.9,0-1.8,0-2.8V25.9l5.9,8.3l0.4,0.5l0.1,0.1l0.1,0.1c0,0,0.1,0.1,0.1,0.1l0.2,0.3c0,0,0,0.1,0.1,0.1l0,0c0,0,0,0,0,0.1l0,0
				v0l0.2,0.3l1.2,1.7l0.2,0.2l3.2,4.5c0.7-0.2,1.4-0.3,2.2-0.3c1,0,2,0.2,3,0.5l0.6-0.9l0.1-0.1l0.7-1l1-1.5l0.7-1l2.4-3.6l0.7,5.3
				l0.2,1.5l0.5,3.5l0.2,1.6v0l0.1,0.4l0.7,5.2l0.5,3.5l1,8C178.1,64.5,178.9,71,179.1,71.7z"/>
			<path class="st0" d="M160.6,48.2c-2.6,0-2.6,4,0,4C163.2,52.2,163.2,48.2,160.6,48.2z"/>
			<path d="M160.6,49.1c-1.4,0-1.4,2.2,0,2.2C162,51.3,162,49.1,160.6,49.1z"/>
			<path class="st0" d="M169.4,47.5c-2.6,0-2.6,4,0,4C172,51.6,172,47.5,169.4,47.5z"/>
			<path d="M169.4,48.5c-1.4,0-1.4,2.2,0,2.2C170.8,50.6,170.8,48.5,169.4,48.5z"/>
			
				<ellipse transform="matrix(0.1804 -0.9836 0.9836 0.1804 69.4866 219.2581)" class="st1" cx="166.3" cy="67.9" rx="3.1" ry="3.1"/>
			
				<ellipse transform="matrix(0.1804 -0.9836 0.9836 0.1804 77.4824 222.2633)" class="st1" cx="172.1" cy="64.6" rx="1.9" ry="1.9"/>
			<path class="st2" d="M178.4,66.5L178.4,66.5c-0.1,0.1,0.3,2.4,0.3,2.4L176.1,55l-0.5-3.4l-1-6l-0.1-0.4l-0.3-1.6l-0.5-3.1
				l-0.2-1.5l-0.1-0.5l-0.2,0.3l-0.7,1l-1.1,1.7l-0.6,1l-0.1,0.1l-1.4,2.1c-1.7-1.9-6.8-0.8-6.8-0.8l-4.5-6.9h0L158,37l-1-1.6l0,0
				L156,34l-4.2-6.4v-1.7l5.9,8.3l0.4,0.5l0.1,0.1l0.2,0.3l0.2,0.3l0.1,0.1l0,0l0,0.1l0,0v0l0.2,0.3l1.2,1.7l0.2,0.2l3.2,4.5
				c0.7-0.2,1.4-0.3,2.2-0.3c1,0,2,0.2,3,0.5l0.6-0.9l0.1-0.1l0.7-1l1-1.5l0.7-1l2.4-3.6l0.7,5.3l0.2,1.5l0.5,3.5l0.2,1.6v0l0.1,0.4
				l0.7,5.2l0.5,3.5l1,8L178.4,66.5z"/>
			<path class="st3" d="M126.3,50c0,0,0.1-0.1,0.3-0.2c0.2-0.1,0.4-0.3,0.7-0.5c0.1-0.1,0.3-0.2,0.4-0.3c0.2-0.1,0.3-0.3,0.5-0.4
				c0.1-0.1,0.2-0.1,0.2-0.2c0.1-0.1,0.2-0.2,0.2-0.2c0.2-0.2,0.3-0.3,0.5-0.5c0.2-0.2,0.3-0.3,0.4-0.5c0.1-0.2,0.3-0.3,0.4-0.5
				c0.1-0.2,0.2-0.3,0.4-0.5c0.1-0.2,0.2-0.3,0.3-0.5c0-0.1,0.1-0.1,0.1-0.2c0-0.1,0.1-0.1,0.1-0.2c0.1-0.1,0.1-0.2,0.2-0.3
				c0.1-0.2,0.2-0.3,0.2-0.3s0,0.1-0.1,0.3c0,0.1,0,0.2-0.1,0.4c0,0.1-0.1,0.3-0.2,0.5c-0.1,0.2-0.1,0.4-0.2,0.5
				c-0.1,0.2-0.2,0.4-0.3,0.6c-0.1,0.2-0.2,0.4-0.4,0.6c-0.2,0.2-0.3,0.4-0.5,0.6c-0.2,0.2-0.3,0.4-0.5,0.5
				c-0.2,0.2-0.4,0.3-0.6,0.4c-0.2,0.1-0.4,0.2-0.6,0.3c-0.2,0.1-0.4,0.2-0.5,0.3c-0.2,0.1-0.3,0.1-0.5,0.2c-0.1,0-0.3,0.1-0.4,0.1
				C126.4,50,126.3,50,126.3,50z"/>
			<circle class="st4" cx="160.6" cy="49.4" r="0.5"/>
			<circle class="st4" cx="169.4" cy="48.6" r="0.5"/>
			<g>
				<g>
					<g>
						<path d="M165.7,57.6c0.3,0.4,1,0.3,1.2-0.2l0.4-1l0.4-1c0.2-0.5-0.2-1-0.8-0.9l-1.1,0.2l-1.1,0.2c-0.5,0.1-0.8,0.7-0.4,1.1
							l0.7,0.9L165.7,57.6z"/>
						<g>
							<path d="M166.7,57.8C166.7,57.8,166.7,57.8,166.7,57.8c0,0.2,0,0.2,0,0.4c0,0.1,0,0.1,0,0.2c0,0.1,0,0.2,0,0.2
								c0,0.2-0.1,0.4-0.2,0.6c-0.1,0.2-0.2,0.4-0.3,0.6c-0.1,0.2-0.3,0.4-0.5,0.6c-0.2,0.2-0.4,0.3-0.7,0.4
								c-0.3,0.1-0.5,0.2-0.8,0.2c-0.3,0-0.6,0-0.8,0c-0.3-0.1-0.5-0.1-0.7-0.2c-0.2-0.1-0.4-0.2-0.6-0.4c-0.2-0.1-0.3-0.3-0.4-0.5
								c-0.1-0.2-0.2-0.3-0.3-0.5c0-0.1-0.1-0.1-0.1-0.2c0-0.1,0-0.1-0.1-0.2c0-0.1,0-0.2-0.1-0.3c0-0.1,0-0.1,0-0.1s0,0,0,0.1
								c0,0.1,0,0.1,0.1,0.3c0,0.1,0,0.1,0.1,0.2c0,0.1,0.1,0.1,0.1,0.2c0.1,0.1,0.2,0.3,0.3,0.4c0.1,0.1,0.3,0.3,0.4,0.4
								c0.2,0.1,0.4,0.2,0.6,0.3c0.2,0.1,0.5,0.1,0.7,0.2c0.2,0,0.5,0,0.7,0c0.2-0.1,0.5-0.1,0.7-0.2c0.2-0.1,0.4-0.3,0.6-0.4
								c0.2-0.2,0.3-0.3,0.4-0.5c0.1-0.2,0.2-0.4,0.2-0.5c0-0.2,0.1-0.3,0.1-0.5c0-0.1,0-0.1,0-0.2c0-0.1,0-0.1,0-0.2
								c0-0.1,0-0.2,0-0.2c0-0.1,0-0.1,0-0.1L166.7,57.8z"/>
							<path d="M166.7,57.8C166.7,57.8,166.7,57.8,166.7,57.8c0,0.1,0,0.3,0.1,0.3c0,0,0,0.1,0,0.2c0,0.1,0,0.1,0.1,0.2
								c0.1,0.1,0.1,0.3,0.2,0.4c0.1,0.1,0.2,0.3,0.4,0.4c0.1,0.1,0.3,0.3,0.5,0.4c0.2,0.1,0.4,0.2,0.7,0.2c0.2,0,0.5,0,0.7,0
								c0.3,0,0.5-0.1,0.7-0.2c0.2-0.1,0.4-0.2,0.6-0.4c0.2-0.2,0.3-0.3,0.5-0.5c0.1-0.2,0.2-0.4,0.3-0.5c0.1-0.2,0.1-0.4,0.1-0.5
								c0-0.1,0-0.2,0-0.2c0-0.1,0-0.1,0-0.2c0-0.1,0-0.2,0-0.3c0-0.1,0-0.1,0-0.1s0,0,0,0.1c0,0.1,0,0.1,0,0.3c0,0.1,0,0.1,0,0.2
								c0,0.1,0,0.1,0,0.2c0,0.2,0,0.3-0.1,0.5c-0.1,0.2-0.1,0.4-0.3,0.6c-0.1,0.2-0.3,0.4-0.4,0.6c-0.2,0.2-0.4,0.3-0.6,0.5
								c-0.2,0.1-0.5,0.2-0.8,0.3c-0.3,0-0.6,0.1-0.8,0c-0.3,0-0.5-0.1-0.8-0.2c-0.2-0.1-0.5-0.2-0.7-0.4c-0.2-0.1-0.4-0.3-0.5-0.5
								c-0.1-0.2-0.2-0.3-0.3-0.5c0-0.1-0.1-0.2-0.1-0.2c0-0.1-0.1-0.1-0.1-0.2c-0.1-0.1-0.1-0.2-0.1-0.3c0-0.1,0-0.1,0-0.1
								L166.7,57.8z"/>
						</g>
					</g>
				</g>
				<path d="M157.4,47.8c0,0,0-0.1,0.1-0.2c0-0.1,0.1-0.1,0.1-0.2c0.1-0.1,0.1-0.2,0.2-0.3c0.1-0.1,0.2-0.2,0.3-0.3
					c0.1-0.1,0.2-0.2,0.3-0.2c0.1-0.1,0.3-0.2,0.4-0.2c0.1-0.1,0.3-0.1,0.5-0.1c0.2,0,0.3-0.1,0.5-0.1c0.2,0,0.3,0,0.5,0
					c0.1,0,0.3,0,0.4,0.1c0.1,0,0.2,0.1,0.4,0.1c0.1,0,0.2,0.1,0.3,0.1c0.1,0,0.1,0.1,0.2,0.1c0.1,0.1,0.2,0.1,0.2,0.1s-0.1,0-0.2,0
					c-0.1,0-0.1,0-0.2,0c-0.1,0-0.2,0-0.3,0c-0.1,0-0.2,0-0.3,0c-0.1,0-0.2,0-0.4,0c-0.1,0-0.3,0-0.4,0c-0.1,0-0.3,0-0.4,0.1
					c-0.1,0-0.3,0.1-0.4,0.1c-0.1,0-0.2,0.1-0.4,0.1c-0.2,0.1-0.5,0.2-0.6,0.3c-0.2,0.1-0.3,0.2-0.5,0.3
					C157.5,47.7,157.4,47.8,157.4,47.8z"/>
				<path d="M171.5,47.4c0,0,0-0.1-0.1-0.2c0-0.1-0.1-0.1-0.1-0.2c-0.1-0.1-0.1-0.2-0.2-0.3c-0.1-0.1-0.2-0.2-0.3-0.3
					c-0.1-0.1-0.2-0.2-0.3-0.2c-0.1-0.1-0.3-0.2-0.4-0.2c-0.1-0.1-0.3-0.1-0.5-0.1c-0.2,0-0.3-0.1-0.5-0.1c-0.2,0-0.3,0-0.5,0
					c-0.1,0-0.3,0-0.4,0.1c-0.1,0-0.2,0.1-0.4,0.1c-0.1,0-0.2,0.1-0.3,0.1c-0.1,0-0.1,0.1-0.2,0.1c-0.1,0.1-0.2,0.1-0.2,0.1
					s0.1,0,0.2,0c0.1,0,0.1,0,0.2,0c0.1,0,0.2,0,0.3,0c0.1,0,0.2,0,0.3,0c0.1,0,0.2,0,0.4,0c0.1,0,0.3,0,0.4,0c0.1,0,0.3,0,0.4,0.1
					c0.1,0,0.3,0.1,0.4,0.1c0.1,0,0.2,0.1,0.4,0.1c0.2,0.1,0.5,0.2,0.6,0.3c0.2,0.1,0.3,0.2,0.5,0.3
					C171.5,47.3,171.5,47.4,171.5,47.4z"/>
				<g>
					<path d="M163.1,56c-0.1,0-0.1,0.2,0,0.2C163.2,56.3,163.2,56,163.1,56z"/>
					<path d="M162.2,57c-0.1,0-0.1,0.2,0,0.2C162.4,57.2,162.4,57,162.2,57z"/>
					<path d="M163.3,57.6c-0.1,0-0.1,0.2,0,0.2C163.5,57.8,163.5,57.6,163.3,57.6z"/>
					<path d="M163.7,56.8c-0.1,0-0.1,0.2,0,0.2C163.9,57,163.9,56.8,163.7,56.8z"/>
				</g>
				<g>
					<path d="M169.3,55c-0.1,0-0.1,0.2,0,0.2C169.4,55.2,169.4,55,169.3,55z"/>
					<path d="M168.5,56c-0.1,0-0.1,0.2,0,0.2C168.6,56.2,168.6,56,168.5,56z"/>
					<path d="M169.5,56.6c-0.1,0-0.1,0.2,0,0.2C169.7,56.8,169.7,56.6,169.5,56.6z"/>
					<path d="M170,55.7c-0.1,0-0.1,0.2,0,0.2C170.1,56,170.1,55.7,170,55.7z"/>
				</g>
			</g>
			
				<ellipse transform="matrix(2.190691e-02 -0.9998 0.9998 2.190691e-02 99.5373 239.2233)" class="st1" cx="172" cy="68.7" rx="1.1" ry="1.1"/>
			<path class="st2" d="M179.1,71.7c-0.1,0.1-0.1,0.1-0.2,0.2c-0.8,0.7-1.6,1.3-2.6,1.9c-0.9,0.6-1.9,1.1-3,1.6
				c-1.1,0.5-2.2,1-3.3,1.4c-1.2,0.4-2.4,0.8-3.6,1.1c-2.5,0.7-5.1,1.1-7.7,1.5c-1.6,0.2-3.3,0.3-5,0.4c-0.6,0-1.2,0-1.9,0.1
				c0-0.9,0-1.8,0-2.8V27.8l1.5,2.1v45.7c0,0.9,0,1.8,0,2.8c0.6,0,1.2,0,1.9-0.1c1.7-0.1,3.3-0.2,5-0.4c2.6-0.3,5.2-0.8,7.7-1.5
				c1.2-0.3,2.4-0.7,3.6-1.1c1.2-0.4,2.3-0.9,3.3-1.4c1.1-0.5,2.1-1,3-1.6c0.4-0.3,0.8-0.5,1.2-0.8C179,71.5,179,71.6,179.1,71.7z"
				/>
			<path class="st0" d="M172.1,22.6c-0.4-1.6-2-2.6-3.6-2.2c-1.6,0.4-2.6,2-2.2,3.6c0.1,0.2,0.1,0.5,0.3,0.7l-7.8,8.3c0,0,0,0,0,0
				c2.6,2.4,6.6,2.3,9-0.3c1.7-1.8,2.1-4.3,1.4-6.5c0.2,0,0.5,0,0.7-0.1C171.5,25.8,172.5,24.2,172.1,22.6z"/>
			<path class="st0" d="M167.7,25.5C167.7,25.5,167.7,25.5,167.7,25.5l-5.5-5.2c0,0,0,0,0,0c-1.4,1.5-1.4,3.9,0.2,5.4
				C163.8,27.1,166.3,27.1,167.7,25.5z"/>
			<path class="st5" d="M167.7,25.5L167.7,25.5c-0.1,0.1-0.3,0.3-0.4,0.4l-5.5-5.1c0,0,0,0,0,0c-0.1,0.1-0.1,0.1-0.1,0.2
				c0.1-0.2,0.3-0.4,0.5-0.6c0,0,0,0,0,0L167.7,25.5z"/>
			<path class="st0" d="M153.7,20.4c-0.1-0.1-0.5-0.5-1.1-0.5c-0.7,0-1.3,0.5-1.4,0.7c1.1,0.3,1.5,0.4,2.5,0.6L153.7,20.4z"/>
			<path class="st6" d="M152.4,20.3c0.2-1.1,1.3-1.7,2.4-1.5c1.1,0.2,1.7,1.3,1.5,2.4c0,0.2-0.1,0.3-0.2,0.5l5.2,5.5c0,0,0,0,0,0
				c-1.7,1.6-4.4,1.5-6-0.2c-1.1-1.2-1.4-2.9-0.9-4.3c-0.2,0-0.3,0-0.5,0C152.8,22.4,152.1,21.3,152.4,20.3z"/>
			<path class="st0" d="M155.3,22.2C155.3,22.2,155.3,22.2,155.3,22.2l3.7-3.5c0,0,0,0,0,0c1,1,0.9,2.6-0.1,3.6
				C157.9,23.3,156.3,23.2,155.3,22.2z"/>
			<g class="st5">
				<path d="M154.3,22.7c-0.4,1.3-0.3,2.7,0.6,3.9c-0.6-1.2-0.6-2.6,0-3.7c-0.2,0-0.3,0-0.5-0.1C154.4,22.8,154.4,22.8,154.3,22.7z"
					/>
				<path d="M153,22.2c-0.2-0.4-0.3-0.9-0.2-1.3c0.1-0.6,0.5-1,0.9-1.3c-0.1,0.2-0.1,0.6,0.3,0.6c0.5,0.1,0.8-0.7,0.2-0.9
					c0.3-0.1,0.6-0.1,0.9,0c0.3,0.1,0.6,0.2,0.9,0.4c-0.3-0.5-0.7-0.9-1.3-1c-1.1-0.2-2.1,0.4-2.4,1.5C152.2,21,152.5,21.7,153,22.2
					z"/>
			</g>
			<path class="st5" d="M155.3,22.2L155.3,22.2c0.1,0.1,0.2,0.2,0.3,0.2l3.6-3.4c0,0,0,0,0,0c0,0,0.1,0.1,0.1,0.1
				c-0.1-0.1-0.2-0.3-0.3-0.4c0,0,0,0,0,0L155.3,22.2z"/>
			<path d="M154.2,19.4c0.6,0.1,0.4,1-0.2,0.9C153.5,20.1,153.7,19.2,154.2,19.4z"/>
			<path d="M169.3,21.3c-0.8,0.2-0.5,1.5,0.3,1.3C170.4,22.4,170.1,21.1,169.3,21.3z"/>
			<g>
				<g>
					<path d="M131,43.4c0,0.1-0.2,0.3-0.4,0.8c-0.2,0.2-0.3,0.5-0.6,0.9c-0.2,0.3-0.5,0.7-0.8,1.1c-0.3,0.4-0.7,0.8-1.1,1.2
						c-0.4,0.4-0.9,0.8-1.3,1.2c-0.5,0.4-1,0.8-1.6,1.2c-0.1,0.1-0.3,0.2-0.4,0.3c-0.1,0.1-0.3,0.2-0.4,0.3
						c-0.3,0.2-0.6,0.3-0.9,0.5c-0.3,0.2-0.6,0.3-0.9,0.5c-0.3,0.1-0.6,0.3-0.9,0.4c-0.6,0.3-1.2,0.5-1.8,0.7
						c-0.3,0.1-0.7,0.2-1,0.3c-1.5-0.2-2.9-0.5-4.1-0.9c0.4,0,0.9-0.1,1.4-0.2c0.5-0.1,1-0.2,1.5-0.3c0.5-0.1,1.1-0.2,1.7-0.4
						c0.6-0.1,1.2-0.3,1.8-0.5c0.3-0.1,0.6-0.2,0.9-0.3c0.3-0.1,0.6-0.2,0.9-0.4c0.3-0.1,0.6-0.3,0.9-0.4c0.1-0.1,0.3-0.1,0.4-0.2
						c0.1-0.1,0.3-0.1,0.4-0.2c0.6-0.3,1.1-0.6,1.6-1c0.5-0.3,1-0.7,1.4-1c0.4-0.4,0.8-0.7,1.2-1.1c0.4-0.3,0.6-0.7,0.9-1
						c0.2-0.3,0.5-0.6,0.6-0.8C130.8,43.7,130.9,43.5,131,43.4z"/>
					<path d="M138.3,38.6c0.8-2.1-0.3-4.9-3.2-4.9c-1.1,0-1.9,0.4-2.5,1c0.4-1.2,1.5-2.2,3.2-2.2C139.3,32.5,140.1,36.6,138.3,38.6z
						"/>
					<path d="M136.7,30.9c0,0,0.1,0,0.2-0.1c0.1,0,0.1,0,0.2-0.1c0.1,0,0.2,0,0.3,0c0.1,0,0.2,0,0.4,0c0.1,0,0.3,0,0.4,0.1
						c0.1,0,0.3,0.1,0.4,0.2c0.1,0.1,0.3,0.1,0.4,0.2c0.1,0.1,0.3,0.2,0.4,0.3c0.1,0.1,0.2,0.2,0.3,0.3c0.1,0.1,0.2,0.2,0.2,0.4
						c0.1,0.1,0.1,0.2,0.2,0.3c0,0.1,0.1,0.2,0.1,0.3c0,0.1,0,0.2,0,0.2c0,0.1,0,0.2,0,0.2s-0.1-0.1-0.1-0.2c0,0-0.1-0.1-0.1-0.2
						c-0.1-0.1-0.1-0.1-0.2-0.2c-0.1-0.1-0.1-0.2-0.2-0.3c-0.1-0.1-0.2-0.2-0.3-0.3c-0.1-0.1-0.2-0.2-0.3-0.3
						c-0.1-0.1-0.2-0.2-0.3-0.2c-0.1-0.1-0.2-0.1-0.3-0.2c-0.1-0.1-0.2-0.1-0.3-0.2c-0.2-0.1-0.5-0.2-0.7-0.3
						c-0.2-0.1-0.4-0.1-0.5-0.2C136.8,30.9,136.7,30.9,136.7,30.9z"/>
					<path class="st7" d="M109.9,37.9c0.6,3.5-1.6,6.5-4.2,8.7c-2.7-1.6-5-6.8-5-6.8l8.9-3.6C109.7,36.7,109.9,37.6,109.9,37.9z"/>
				</g>
			</g>
			<circle class="st1" cx="139.3" cy="66" r="1.9"/>
			
				<ellipse transform="matrix(0.9873 -0.1589 0.1589 0.9873 -8.5949 23.6018)" class="st1" cx="143.3" cy="65.6" rx="1.1" ry="1.1"/>
			<circle class="st1" cx="143.6" cy="71.3" r="3.1"/>
			<path class="st1" d="M150.3,79.8c-0.1,0-0.1,0-0.2,0c-0.3,0-1.1,0-1.9-0.1V12.5l2-2.9L150.3,79.8z"/>
			<path class="st0" d="M152.2,77.1c-14.3,0-24.1-3.5-27.1-6.9l-2.3,3.7c1.6,1.4,3.9,2.8,7.3,4c5.9,2.2,13.8,3.4,22.1,3.4
				s16.2-1.2,22.1-3.4c2.2-0.8,3.9-1.7,5.3-2.6l-0.7-4.7C175.4,73.9,165.9,77.1,152.2,77.1z"/>
			<g>
				<g>
					<path d="M152.2,80.8c-8.3,0-16.1-1.2-22-3.4c-2.8-1-5.1-2.3-6.7-3.6l0.1-0.2c1.6,1.3,3.9,2.5,6.7,3.6
						c5.9,2.2,13.7,3.3,21.9,3.3c8.3,0,16-1.2,21.9-3.3c1.8-0.7,3.4-1.4,4.8-2.2l0-0.1l0.2,0l0,0.2l-0.1,0c-1.4,0.8-3,1.6-4.9,2.3
						C168.2,79.6,160.4,80.8,152.2,80.8z"/>
				</g>
			</g>
			<g>
				<g>
					<path d="M152.2,77.8c-13.5,0-23.3-3.2-27-6.4l0,0l-0.2-0.1l0.2-0.3l0.1,0.1c3.6,3.2,13.4,6.5,27,6.5c13.3,0,22.2-3,26.1-5.8
						l0.1,0.2C174.4,74.8,165.5,77.8,152.2,77.8z"/>
				</g>
			</g>
			<g>
				<circle class="st0" cx="152" cy="83.2" r="3.3"/>
				<path d="M152,86.9c-2,0-3.7-1.7-3.7-3.7c0-2,1.6-3.7,3.7-3.7c2,0,3.7,1.6,3.7,3.7C155.7,85.2,154,86.9,152,86.9z M152,80.3
					c-1.6,0-2.8,1.3-2.8,2.8c0,1.6,1.3,2.8,2.8,2.8c1.6,0,2.8-1.3,2.8-2.8C154.8,81.6,153.6,80.3,152,80.3z"/>
			</g>
			<path class="st5" d="M154.5,83.2c0,0.9-0.5,1.6-1.1,2.1c0.4-0.4,0.7-1,0.7-1.7c0-1.4-1.1-2.5-2.5-2.5c-0.5,0-1,0.1-1.4,0.4
				c0.5-0.5,1.1-0.8,1.8-0.8C153.4,80.7,154.5,81.8,154.5,83.2z"/>
			<g>
				<path class="st8" d="M151.9,84.3l-0.2,0c-0.1-0.6-0.2-1.1-0.3-1.6c-0.1,0.1-0.1,0.3-0.2,0.6c-0.1,0.2-0.1,0.4-0.1,0.5
					c0,0,0,0,0,0c0,0,0,0,0,0c0,0-0.1,0-0.1,0c-0.1,0-0.1,0-0.1,0c0-0.1,0-0.2-0.1-0.5c-0.1-0.3-0.1-0.5-0.2-0.6
					c0,0.3-0.2,0.8-0.4,1.6l-0.2,0c0-0.2,0.1-0.5,0.2-0.9c0.1-0.4,0.2-0.7,0.2-1c0,0,0.1,0,0.1,0c0,0,0.1,0,0.2,0
					c0,0,0.1,0.1,0.1,0.2c0,0.2,0.1,0.3,0.1,0.5c0,0.2,0.1,0.3,0.1,0.3c0-0.1,0.1-0.3,0.2-0.6c0.1-0.3,0.1-0.4,0.1-0.5
					c0,0,0.1,0,0.3,0c0,0.2,0.1,0.4,0.1,0.6c0,0.2,0.1,0.4,0.1,0.7C151.8,84,151.9,84.2,151.9,84.3z"/>
				<path class="st8" d="M153.8,84.3l-0.2,0c-0.1-0.6-0.2-1.1-0.3-1.6c-0.1,0.1-0.1,0.3-0.2,0.6c-0.1,0.2-0.1,0.4-0.1,0.5
					c0,0,0,0,0,0c0,0,0,0,0,0c0,0-0.1,0-0.1,0c-0.1,0-0.1,0-0.1,0c0-0.1,0-0.2-0.1-0.5c-0.1-0.3-0.1-0.5-0.2-0.6
					c0,0.3-0.2,0.8-0.4,1.6l-0.2,0c0-0.2,0.1-0.5,0.2-0.9c0.1-0.4,0.2-0.7,0.2-1c0,0,0.1,0,0.1,0c0,0,0.1,0,0.2,0
					c0,0,0.1,0.1,0.1,0.2c0,0.2,0.1,0.3,0.1,0.5c0,0.2,0.1,0.3,0.1,0.3c0-0.1,0.1-0.3,0.2-0.6c0.1-0.3,0.1-0.4,0.1-0.5
					c0,0,0.1,0,0.3,0c0,0.2,0.1,0.4,0.1,0.6c0,0.2,0.1,0.4,0.1,0.7C153.8,84,153.8,84.2,153.8,84.3z"/>
			</g>
		</g>
		<g>
			<g>
				<g>
					<path class="st0" d="M44.6,64v11h-5.9v-9.6c0-1.6-0.8-2.6-2.2-2.6c-1.4,0-2.4,1.1-2.4,2.8V75h-5.9v-9.6c0-1.6-0.8-2.6-2.2-2.6
						c-1.4,0-2.4,1.1-2.4,2.8V75H18V57.6h5.8v2.7c1-1.7,2.7-2.7,4.9-2.7c2.5,0,4.3,1.3,5.1,3.6c1-2.3,2.8-3.6,5.3-3.6
						C42.4,57.6,44.6,60.1,44.6,64z"/>
					<path class="st0" d="M55,57.4c5.2,0,8.5,3,8.5,7.7v10h-5.8v-3.7h-5.4V75h-5.8V65C46.6,60.4,49.9,57.4,55,57.4z M55.1,62.2
						c-1.6,0-2.7,1.1-2.7,2.9v2.2h5.4V65C57.8,63.3,56.7,62.2,55.1,62.2z"/>
					<path class="st0" d="M72.9,61.7c-0.6,0-1.1,0.2-1.1,0.7c0,2.2,9,0.8,9,7.2c0,3.9-3.4,5.6-7.4,5.6c-3,0-6.4-1-8.7-2.8l2.1-4.3
						c1.8,1.5,4.9,2.7,6.7,2.7c0.8,0,1.4-0.3,1.4-0.9c0-2.3-9-0.8-9-6.9c0-3.5,2.9-5.7,7.5-5.7c2.8,0,5.6,0.8,7.6,2.1l-2.1,4.4
						C77.1,62.8,74.4,61.7,72.9,61.7z"/>
					<path class="st0" d="M91,62.2c-2.1,0-3.6,1.7-3.6,4c0,2.3,1.5,4,3.6,4c1.2,0,2.8-0.8,4-2l3.3,3.6c-1.9,2.1-4.9,3.5-7.6,3.5
						c-5.4,0-9.2-3.8-9.2-9c0-5.1,4-8.9,9.5-8.9c2.7,0,5.6,1.2,7.4,3.2l-3.3,4C93.9,63.1,92.3,62.2,91,62.2z"/>
					<path class="st0" d="M117.5,66.3c0,5.2-4,9-9.6,9c-5.6,0-9.6-3.8-9.6-9c0-5.2,4-8.9,9.6-8.9C113.5,57.4,117.5,61.1,117.5,66.3z
						 M104.3,66.3c0,2.4,1.7,4.2,3.7,4.2c2,0,3.6-1.8,3.6-4.2s-1.6-4.1-3.6-4.1C106,62.2,104.3,63.9,104.3,66.3z"/>
				</g>
			</g>
			<g>
				<g>
					<path class="st0" d="M212,64.4v11h-5.9v-9.6c0-1.6-0.8-2.6-2.2-2.6c-1.4,0-2.4,1.1-2.4,2.8v9.5h-5.9v-9.6
						c0-1.6-0.8-2.6-2.2-2.6c-1.4,0-2.4,1.1-2.4,2.8v9.5h-5.8V57.9h5.8v2.7c1-1.7,2.7-2.7,4.9-2.7c2.5,0,4.3,1.3,5.1,3.6
						c1-2.3,2.8-3.6,5.3-3.6C209.8,57.9,212,60.5,212,64.4z"/>
					<path class="st0" d="M230.7,57.9v17.5h-5.8v-2.8c-1.1,1.8-2.9,2.8-5.1,2.8c-3.6,0-5.9-2.5-5.9-6.4v-11h5.9v9.6
						c0,1.6,0.9,2.6,2.3,2.6c1.7,0,2.8-1.1,2.8-2.8v-9.5H230.7z"/>
					<path class="st0" d="M249.9,64.4v11h-5.9v-9.6c0-1.6-0.9-2.6-2.3-2.6c-1.7,0-2.8,1.1-2.8,2.8v9.5h-5.8V57.9h5.8v2.8
						c1.1-1.8,2.9-2.8,5.1-2.8C247.6,57.9,249.9,60.5,249.9,64.4z"/>
					<path class="st0" d="M269.4,66.7c0,5.3-3.8,8.7-9.7,8.7h-7.6V57.9h7.8C265.7,57.9,269.4,61.4,269.4,66.7z M263.5,66.7
						c0-2.6-1.5-4.3-3.7-4.3h-1.9v8.5h2.2C262.2,70.9,263.5,69.3,263.5,66.7z"/>
					<path class="st0" d="M289.4,66.7c0,5.2-4,9-9.6,9s-9.6-3.8-9.6-9c0-5.2,4-8.9,9.6-8.9S289.4,61.5,289.4,66.7z M276.1,66.7
						c0,2.4,1.7,4.2,3.7,4.2c2,0,3.6-1.8,3.6-4.2c0-2.4-1.6-4.1-3.6-4.1C277.8,62.6,276.1,64.3,276.1,66.7z"/>
				</g>
			</g>
		</g>
	</g>
</g>
</svg>
